{"accessors" : [{"bufferView" : 0, "byteOffset" : 0, "componentType" : 5123, "count" : 45780, "type" : "SCALAR", "max" : [42632], "min" : [0]}, {"bufferView" : 1, "byteOffset" : 0, "componentType" : 5126, "count" : 42633, "type" : "VEC3", "max" : [27.100704193115234, 50, 650.3333129882812], "min" : [-123.1676025390625, -50, 474.81536865234375], "name" : "POSITION"}, {"bufferView" : 1, "byteOffset" : 12, "componentType" : 5126, "count" : 42633, "type" : "VEC3", "max" : [1.0000030994415283, 1.0000044107437134, 0.9999911189079285], "min" : [-0.9999911189079285, -1.0000044107437134, -0.9999911189079285], "name" : "NORMAL"}], "asset" : {"generator" : "Aspose.3D 24.1.0", "version" : "2.0"}, "buffers" : [{"uri" : "data:application/octet-stream;base64,", "byteLength" : 1190288}], "bufferViews" : [{"buffer" : 0, "byteOffset" : 0, "byteLength" : 91560, "target" : 34963}, {"buffer" : 0, "byteOffset" : 91564, "byteLength" : 1098720, "byteStride" : 24, "target" : 34962}], "meshes" : [{"primitives" : [{"attributes" : {"POSITION" : 1, "NORMAL" : 2}, "indices" : 0, "mode" : 4}], "name" : ""}], "nodes" : [{"mesh" : 0, "name" : ""}], "scene" : 0, "scenes" : [{"nodes" : [0]}]}