{"accessors" : [{"bufferView" : 0, "byteOffset" : 0, "componentType" : 5123, "count" : 62454, "type" : "SCALAR", "max" : [59495], "min" : [0]}, {"bufferView" : 1, "byteOffset" : 0, "componentType" : 5126, "count" : 59496, "type" : "VEC3", "max" : [37.105159759521484, 56, 554.8123779296875], "min" : [-97.49995422363281, -52.5, 202.5067596435547], "name" : "POSITION"}, {"bufferView" : 1, "byteOffset" : 12, "componentType" : 5126, "count" : 59496, "type" : "VEC3", "max" : [0.9999891519546509, 1.0000044107437134, 1.0000044107437134], "min" : [-1.0000044107437134, -1.0000044107437134, -1.000001311302185], "name" : "NORMAL"}], "asset" : {"generator" : "Aspose.3D 24.1.0", "version" : "2.0"}, "buffers" : [{"uri" : "data:application/octet-stream;base64,", "byteLength" : 1623812}], "bufferViews" : [{"buffer" : 0, "byteOffset" : 0, "byteLength" : 124908, "target" : 34963}, {"buffer" : 0, "byteOffset" : 124912, "byteLength" : 1498896, "byteStride" : 24, "target" : 34962}], "meshes" : [{"primitives" : [{"attributes" : {"POSITION" : 1, "NORMAL" : 2}, "indices" : 0, "mode" : 4}], "name" : ""}], "nodes" : [{"mesh" : 0, "name" : ""}], "scene" : 0, "scenes" : [{"nodes" : [0]}]}