<svg width="218" height="52" viewBox="0 0 218 52" fill="none" xmlns="http://www.w3.org/2000/svg">
<path fill-rule="evenodd" clip-rule="evenodd" d="M207.539 2H62.5L53 52H202.139C206.979 52 211.124 48.5345 211.981 43.7715L217.381 13.7715C218.485 7.63821 213.771 2 207.539 2ZM72.4139 15.7273H67.2548V39H71.3003V22.9773H71.5162L77.948 38.9318H80.9707L87.4026 23.0114H87.6185V39H91.6639V15.7273H86.5048L79.5957 32.5909H79.323L72.4139 15.7273ZM97.6548 38.2159C98.9048 38.9659 100.382 39.3409 102.087 39.3409C103.791 39.3409 105.268 38.9659 106.518 38.2159C107.768 37.4659 108.734 36.4167 109.416 35.0682C110.106 33.7197 110.45 32.1439 110.45 30.3409C110.45 28.5379 110.106 26.9583 109.416 25.6023C108.734 24.2462 107.768 23.1932 106.518 22.4432C105.268 21.6932 103.791 21.3182 102.087 21.3182C100.382 21.3182 98.9048 21.6932 97.6548 22.4432C96.4048 23.1932 95.4351 24.2462 94.7457 25.6023C94.0639 26.9583 93.723 28.5379 93.723 30.3409C93.723 32.1439 94.0639 33.7197 94.7457 35.0682C95.4351 36.4167 96.4048 37.4659 97.6548 38.2159ZM104.428 35.2841C103.806 35.7917 103.034 36.0455 102.109 36.0455C101.162 36.0455 100.375 35.7917 99.7457 35.2841C99.1245 34.7689 98.6586 34.0795 98.348 33.2159C98.045 32.3523 97.8935 31.3902 97.8935 30.3295C97.8935 29.2614 98.045 28.2955 98.348 27.4318C98.6586 26.5606 99.1245 25.8674 99.7457 25.3523C100.375 24.8371 101.162 24.5795 102.109 24.5795C103.034 24.5795 103.806 24.8371 104.428 25.3523C105.049 25.8674 105.511 26.5606 105.814 27.4318C106.125 28.2955 106.28 29.2614 106.28 30.3295C106.28 31.3902 106.125 32.3523 105.814 33.2159C105.511 34.0795 105.049 34.7689 104.428 35.2841ZM115.137 38.25C116.221 38.9545 117.448 39.3068 118.819 39.3068C119.819 39.3068 120.649 39.1402 121.308 38.8068C121.967 38.4735 122.497 38.072 122.899 37.6023C123.3 37.125 123.607 36.6742 123.819 36.25H124.069V39H128.114V15.7273H123.989V24.4318H123.819C123.607 24.0076 123.308 23.5568 122.921 23.0795C122.535 22.5947 122.012 22.1818 121.353 21.8409C120.694 21.4924 119.853 21.3182 118.83 21.3182C117.489 21.3182 116.274 21.6629 115.183 22.3523C114.092 23.0341 113.224 24.0455 112.58 25.3864C111.944 26.7197 111.626 28.3561 111.626 30.2955C111.626 32.2121 111.94 33.8409 112.569 35.1818C113.198 36.5227 114.054 37.5455 115.137 38.25ZM122.194 35.2273C121.58 35.697 120.838 35.9318 119.967 35.9318C119.065 35.9318 118.304 35.6894 117.683 35.2045C117.069 34.7121 116.603 34.0417 116.285 33.1932C115.974 32.3371 115.819 31.3636 115.819 30.2727C115.819 29.1894 115.974 28.2273 116.285 27.3864C116.596 26.5455 117.058 25.8864 117.671 25.4091C118.285 24.9318 119.05 24.6932 119.967 24.6932C120.853 24.6932 121.599 24.9242 122.205 25.3864C122.819 25.8485 123.281 26.4962 123.592 27.3295C123.91 28.1629 124.069 29.1439 124.069 30.2727C124.069 31.4015 123.91 32.3902 123.592 33.2386C123.274 34.0871 122.808 34.75 122.194 35.2273ZM142.023 21.5455V31.6591C142.023 32.5455 141.837 33.2841 141.466 33.875C141.103 34.4583 140.637 34.8977 140.068 35.1932C139.5 35.4886 138.913 35.6364 138.307 35.6364C137.322 35.6364 136.527 35.3106 135.921 34.6591C135.315 34.0076 135.012 33.1288 135.012 32.0227V21.5455H130.898V32.6591C130.898 34.053 131.144 35.2424 131.637 36.2273C132.129 37.2045 132.811 37.9508 133.682 38.4659C134.561 38.9735 135.572 39.2273 136.716 39.2273C138.027 39.2273 139.129 38.9167 140.023 38.2955C140.925 37.6742 141.572 36.875 141.966 35.8977H142.148V39H146.137V21.5455H142.023ZM163.755 21.5114C164.089 21.9962 164.35 22.5455 164.539 23.1591H168.835C168.661 22.0152 168.293 20.9697 167.733 20.0227C167.172 19.0758 166.456 18.2576 165.585 17.5682C164.721 16.8788 163.733 16.3485 162.619 15.9773C161.505 15.5985 160.305 15.4091 159.017 15.4091C157.494 15.4091 156.085 15.6818 154.789 16.2273C153.494 16.7652 152.365 17.553 151.403 18.5909C150.441 19.6212 149.691 20.875 149.153 22.3523C148.623 23.8295 148.358 25.5076 148.358 27.3864C148.358 29.8409 148.808 31.9621 149.71 33.75C150.619 35.5303 151.88 36.9053 153.494 37.875C155.115 38.8371 156.998 39.3182 159.142 39.3182C161.066 39.3182 162.771 38.928 164.255 38.1477C165.74 37.3598 166.907 36.2386 167.755 34.7841C168.604 33.3295 169.028 31.6061 169.028 29.6136V26.8182H159.585V30.1136H164.947C164.928 31.1808 164.693 32.1164 164.244 32.9205C163.774 33.7538 163.104 34.3977 162.233 34.8523C161.369 35.3068 160.346 35.5341 159.164 35.5341C157.861 35.5341 156.718 35.2197 155.733 34.5909C154.748 33.9545 153.979 33.0265 153.426 31.8068C152.873 30.5871 152.596 29.0985 152.596 27.3409C152.596 25.5985 152.873 24.1212 153.426 22.9091C153.986 21.6894 154.755 20.7652 155.733 20.1364C156.71 19.5076 157.824 19.1932 159.074 19.1932C159.771 19.1932 160.414 19.2841 161.005 19.4659C161.596 19.6402 162.119 19.9015 162.574 20.25C163.036 20.5985 163.43 21.0189 163.755 21.5114ZM175.312 21.5455H171.323V39H175.437V28.7386C175.437 27.9962 175.607 27.3409 175.948 26.7727C176.289 26.2045 176.755 25.7614 177.346 25.4432C177.944 25.1174 178.618 24.9545 179.368 24.9545C179.717 24.9545 180.077 24.9811 180.448 25.0341C180.827 25.0795 181.103 25.1326 181.278 25.1932V21.4091C181.088 21.3712 180.85 21.3447 180.562 21.3295C180.281 21.3068 180.028 21.2955 179.8 21.2955C178.8 21.2955 177.91 21.572 177.13 22.125C176.357 22.6705 175.812 23.447 175.493 24.4545H175.312V21.5455ZM186.524 21.5455H182.411V39H186.524V21.5455ZM182.797 18.4205C183.267 18.8523 183.827 19.0682 184.479 19.0682C185.138 19.0682 185.698 18.8523 186.161 18.4205C186.63 17.9811 186.865 17.4545 186.865 16.8409C186.865 16.2197 186.63 15.6932 186.161 15.2614C185.698 14.822 185.138 14.6023 184.479 14.6023C183.827 14.6023 183.267 14.822 182.797 15.2614C182.327 15.6932 182.092 16.2197 182.092 16.8409C182.092 17.4545 182.327 17.9811 182.797 18.4205ZM189.154 21.5455V45.5455H193.268V36.25H193.438C193.658 36.6742 193.965 37.125 194.359 37.6023C194.76 38.072 195.291 38.4735 195.95 38.8068C196.609 39.1402 197.438 39.3068 198.438 39.3068C199.81 39.3068 201.037 38.9545 202.12 38.25C203.203 37.5455 204.06 36.5227 204.688 35.1818C205.317 33.8409 205.632 32.2121 205.632 30.2955C205.632 28.3561 205.31 26.7197 204.666 25.3864C204.029 24.0455 203.166 23.0341 202.075 22.3523C200.991 21.6629 199.775 21.3182 198.427 21.3182C197.404 21.3182 196.563 21.4924 195.904 21.8409C195.245 22.1818 194.722 22.5947 194.336 23.0795C193.95 23.5568 193.65 24.0076 193.438 24.4318H193.2V21.5455H189.154ZM193.666 33.2386C193.347 32.3902 193.188 31.4015 193.188 30.2727C193.188 29.1439 193.344 28.1629 193.654 27.3295C193.972 26.4962 194.438 25.8485 195.052 25.3864C195.666 24.9242 196.412 24.6932 197.291 24.6932C198.207 24.6932 198.972 24.9318 199.586 25.4091C200.2 25.8864 200.662 26.5455 200.972 27.3864C201.283 28.2273 201.438 29.1894 201.438 30.2727C201.438 31.3636 201.279 32.3371 200.961 33.1932C200.65 34.0417 200.188 34.7121 199.575 35.2045C198.961 35.6894 198.2 35.9318 197.291 35.9318C196.419 35.9318 195.677 35.697 195.063 35.2273C194.457 34.75 193.991 34.0871 193.666 33.2386Z" fill="#007BBD"/>
<path fill-rule="evenodd" clip-rule="evenodd" d="M7.04541 6.4452C5.888 8.1778 5.47367 10.4796 4.64501 15.0833L1.36901 33.2833C0.223987 39.6445 -0.348525 42.8251 0.525945 45.3144C1.32673 47.5939 2.92573 49.5064 5.02734 50.6984C7.32231 52 10.554 52 17.0175 52H51L60.5 2H20.2935C15.6159 2 13.2771 2 11.3668 2.83217C9.60992 3.59756 8.10993 4.85166 7.04541 6.4452ZM28 9C29.544 9 30.9246 9.69987 31.8418 10.7997L40.3824 18.9133L41.0047 19.5038L41.4891 18.7856C41.798 18.3277 42.4195 18.2069 42.8774 18.5158L47.381 21.5535C47.8389 21.8624 47.9597 22.4839 47.6509 22.9418L47.2645 23.5146L42.527 20.319L40.1306 23.8717L44.8682 27.0673L44.6565 27.381C44.3477 27.8389 43.7262 27.9597 43.2683 27.6509L38.7647 24.6131C38.3068 24.3043 38.186 23.6828 38.4948 23.2249L38.9882 22.4934L30.9952 18.0529L29.2978 36.7237C31.5419 38.3604 33 41.0099 33 44H15C15 40.0918 17.4911 36.7655 20.972 35.5221L24.4088 17.479C23.5367 16.579 23 15.3522 23 14C23 11.2386 25.2386 9 28 9ZM31 14C31 15.6569 29.6569 17 28 17C26.3431 17 25 15.6569 25 14C25 12.3431 26.3431 11 28 11C29.6569 11 31 12.3431 31 14Z" fill="#007BBD"/>
<path fill-rule="evenodd" clip-rule="evenodd" d="M207.539 0H62.5L53 50H202.139C206.979 50 211.124 46.5345 211.981 41.7715L217.381 11.7715C218.485 5.63821 213.771 0 207.539 0ZM72.4139 13.7273H67.2548V37H71.3003V20.9773H71.5162L77.948 36.9318H80.9707L87.4026 21.0114H87.6185V37H91.6639V13.7273H86.5048L79.5957 30.5909H79.323L72.4139 13.7273ZM97.6548 36.2159C98.9048 36.9659 100.382 37.3409 102.087 37.3409C103.791 37.3409 105.268 36.9659 106.518 36.2159C107.768 35.4659 108.734 34.4167 109.416 33.0682C110.106 31.7197 110.45 30.1439 110.45 28.3409C110.45 26.5379 110.106 24.9583 109.416 23.6023C108.734 22.2462 107.768 21.1932 106.518 20.4432C105.268 19.6932 103.791 19.3182 102.087 19.3182C100.382 19.3182 98.9048 19.6932 97.6548 20.4432C96.4048 21.1932 95.4351 22.2462 94.7457 23.6023C94.0639 24.9583 93.723 26.5379 93.723 28.3409C93.723 30.1439 94.0639 31.7197 94.7457 33.0682C95.4351 34.4167 96.4048 35.4659 97.6548 36.2159ZM104.428 33.2841C103.806 33.7917 103.034 34.0455 102.109 34.0455C101.162 34.0455 100.375 33.7917 99.7457 33.2841C99.1245 32.7689 98.6586 32.0795 98.348 31.2159C98.045 30.3523 97.8935 29.3902 97.8935 28.3295C97.8935 27.2614 98.045 26.2955 98.348 25.4318C98.6586 24.5606 99.1245 23.8674 99.7457 23.3523C100.375 22.8371 101.162 22.5795 102.109 22.5795C103.034 22.5795 103.806 22.8371 104.428 23.3523C105.049 23.8674 105.511 24.5606 105.814 25.4318C106.125 26.2955 106.28 27.2614 106.28 28.3295C106.28 29.3902 106.125 30.3523 105.814 31.2159C105.511 32.0795 105.049 32.7689 104.428 33.2841ZM115.137 36.25C116.221 36.9545 117.448 37.3068 118.819 37.3068C119.819 37.3068 120.649 37.1402 121.308 36.8068C121.967 36.4735 122.497 36.072 122.899 35.6023C123.3 35.125 123.607 34.6742 123.819 34.25H124.069V37H128.114V13.7273H123.989V22.4318H123.819C123.607 22.0076 123.308 21.5568 122.921 21.0795C122.535 20.5947 122.012 20.1818 121.353 19.8409C120.694 19.4924 119.853 19.3182 118.83 19.3182C117.489 19.3182 116.274 19.6629 115.183 20.3523C114.092 21.0341 113.224 22.0455 112.58 23.3864C111.944 24.7197 111.626 26.3561 111.626 28.2955C111.626 30.2121 111.94 31.8409 112.569 33.1818C113.198 34.5227 114.054 35.5455 115.137 36.25ZM122.194 33.2273C121.58 33.697 120.838 33.9318 119.967 33.9318C119.065 33.9318 118.304 33.6894 117.683 33.2045C117.069 32.7121 116.603 32.0417 116.285 31.1932C115.974 30.3371 115.819 29.3636 115.819 28.2727C115.819 27.1894 115.974 26.2273 116.285 25.3864C116.596 24.5455 117.058 23.8864 117.671 23.4091C118.285 22.9318 119.05 22.6932 119.967 22.6932C120.853 22.6932 121.599 22.9242 122.205 23.3864C122.819 23.8485 123.281 24.4962 123.592 25.3295C123.91 26.1629 124.069 27.1439 124.069 28.2727C124.069 29.4015 123.91 30.3902 123.592 31.2386C123.274 32.0871 122.808 32.75 122.194 33.2273ZM142.023 19.5455V29.6591C142.023 30.5455 141.837 31.2841 141.466 31.875C141.103 32.4583 140.637 32.8977 140.068 33.1932C139.5 33.4886 138.913 33.6364 138.307 33.6364C137.322 33.6364 136.527 33.3106 135.921 32.6591C135.315 32.0076 135.012 31.1288 135.012 30.0227V19.5455H130.898V30.6591C130.898 32.053 131.144 33.2424 131.637 34.2273C132.129 35.2045 132.811 35.9508 133.682 36.4659C134.561 36.9735 135.572 37.2273 136.716 37.2273C138.027 37.2273 139.129 36.9167 140.023 36.2955C140.925 35.6742 141.572 34.875 141.966 33.8977H142.148V37H146.137V19.5455H142.023ZM163.755 19.5114C164.089 19.9962 164.35 20.5455 164.539 21.1591H168.835C168.661 20.0152 168.293 18.9697 167.733 18.0227C167.172 17.0758 166.456 16.2576 165.585 15.5682C164.721 14.8788 163.733 14.3485 162.619 13.9773C161.505 13.5985 160.305 13.4091 159.017 13.4091C157.494 13.4091 156.085 13.6818 154.789 14.2273C153.494 14.7652 152.365 15.553 151.403 16.5909C150.441 17.6212 149.691 18.875 149.153 20.3523C148.623 21.8295 148.358 23.5076 148.358 25.3864C148.358 27.8409 148.808 29.9621 149.71 31.75C150.619 33.5303 151.88 34.9053 153.494 35.875C155.115 36.8371 156.998 37.3182 159.142 37.3182C161.066 37.3182 162.771 36.928 164.255 36.1477C165.74 35.3598 166.907 34.2386 167.755 32.7841C168.604 31.3295 169.028 29.6061 169.028 27.6136V24.8182H159.585V28.1136H164.947C164.928 29.1808 164.693 30.1164 164.244 30.9205C163.774 31.7538 163.104 32.3977 162.233 32.8523C161.369 33.3068 160.346 33.5341 159.164 33.5341C157.861 33.5341 156.718 33.2197 155.733 32.5909C154.748 31.9545 153.979 31.0265 153.426 29.8068C152.873 28.5871 152.596 27.0985 152.596 25.3409C152.596 23.5985 152.873 22.1212 153.426 20.9091C153.986 19.6894 154.755 18.7652 155.733 18.1364C156.71 17.5076 157.824 17.1932 159.074 17.1932C159.771 17.1932 160.414 17.2841 161.005 17.4659C161.596 17.6402 162.119 17.9015 162.574 18.25C163.036 18.5985 163.43 19.0189 163.755 19.5114ZM175.312 19.5455H171.323V37H175.437V26.7386C175.437 25.9962 175.607 25.3409 175.948 24.7727C176.289 24.2045 176.755 23.7614 177.346 23.4432C177.944 23.1174 178.618 22.9545 179.368 22.9545C179.717 22.9545 180.077 22.9811 180.448 23.0341C180.827 23.0795 181.103 23.1326 181.278 23.1932V19.4091C181.088 19.3712 180.85 19.3447 180.562 19.3295C180.281 19.3068 180.028 19.2955 179.8 19.2955C178.8 19.2955 177.91 19.572 177.13 20.125C176.357 20.6705 175.812 21.447 175.493 22.4545H175.312V19.5455ZM186.524 19.5455H182.411V37H186.524V19.5455ZM182.797 16.4205C183.267 16.8523 183.827 17.0682 184.479 17.0682C185.138 17.0682 185.698 16.8523 186.161 16.4205C186.63 15.9811 186.865 15.4545 186.865 14.8409C186.865 14.2197 186.63 13.6932 186.161 13.2614C185.698 12.822 185.138 12.6023 184.479 12.6023C183.827 12.6023 183.267 12.822 182.797 13.2614C182.327 13.6932 182.092 14.2197 182.092 14.8409C182.092 15.4545 182.327 15.9811 182.797 16.4205ZM189.154 19.5455V43.5455H193.268V34.25H193.438C193.658 34.6742 193.965 35.125 194.359 35.6023C194.76 36.072 195.291 36.4735 195.95 36.8068C196.609 37.1402 197.438 37.3068 198.438 37.3068C199.81 37.3068 201.037 36.9545 202.12 36.25C203.203 35.5455 204.06 34.5227 204.688 33.1818C205.317 31.8409 205.632 30.2121 205.632 28.2955C205.632 26.3561 205.31 24.7197 204.666 23.3864C204.029 22.0455 203.166 21.0341 202.075 20.3523C200.991 19.6629 199.775 19.3182 198.427 19.3182C197.404 19.3182 196.563 19.4924 195.904 19.8409C195.245 20.1818 194.722 20.5947 194.336 21.0795C193.95 21.5568 193.65 22.0076 193.438 22.4318H193.2V19.5455H189.154ZM193.666 31.2386C193.347 30.3902 193.188 29.4015 193.188 28.2727C193.188 27.1439 193.344 26.1629 193.654 25.3295C193.972 24.4962 194.438 23.8485 195.052 23.3864C195.666 22.9242 196.412 22.6932 197.291 22.6932C198.207 22.6932 198.972 22.9318 199.586 23.4091C200.2 23.8864 200.662 24.5455 200.972 25.3864C201.283 26.2273 201.438 27.1894 201.438 28.2727C201.438 29.3636 201.279 30.3371 200.961 31.1932C200.65 32.0417 200.188 32.7121 199.575 33.2045C198.961 33.6894 198.2 33.9318 197.291 33.9318C196.419 33.9318 195.677 33.697 195.063 33.2273C194.457 32.75 193.991 32.0871 193.666 31.2386Z" fill="white"/>
<path fill-rule="evenodd" clip-rule="evenodd" d="M7.04541 4.4452C5.888 6.1778 5.47367 8.47962 4.64501 13.0833L1.36901 31.2833C0.223987 37.6445 -0.348525 40.8251 0.525945 43.3144C1.32673 45.5939 2.92573 47.5064 5.02734 48.6984C7.32231 50 10.554 50 17.0175 50H51L60.5 0H20.2935C15.6159 0 13.2771 0 11.3668 0.832173C9.60992 1.59756 8.10993 2.85166 7.04541 4.4452ZM28 7C29.544 7 30.9246 7.69987 31.8418 8.79969L40.3824 16.9133L41.0047 17.5038L41.4891 16.7856C41.798 16.3277 42.4195 16.2069 42.8774 16.5158L47.381 19.5535C47.8389 19.8624 47.9597 20.4839 47.6509 20.9418L47.2645 21.5146L42.527 18.319L40.1306 21.8717L44.8682 25.0673L44.6565 25.381C44.3477 25.8389 43.7262 25.9597 43.2683 25.6509L38.7647 22.6131C38.3068 22.3043 38.186 21.6828 38.4948 21.2249L38.9882 20.4934L30.9952 16.0529L29.2978 34.7237C31.5419 36.3604 33 39.0099 33 42H15C15 38.0918 17.4911 34.7655 20.972 33.5221L24.4088 15.479C23.5367 14.579 23 13.3522 23 12C23 9.23858 25.2386 7 28 7ZM31 12C31 13.6569 29.6569 15 28 15C26.3431 15 25 13.6569 25 12C25 10.3431 26.3431 9 28 9C29.6569 9 31 10.3431 31 12Z" fill="white"/>
</svg>
