<svg width="62" height="65" viewBox="0 0 62 65" fill="none" xmlns="http://www.w3.org/2000/svg">
<path d="M25.1692 14.4801C23.7905 14.7928 22.7692 15.1949 21.7863 15.8268C21.2118 16.1907 20.9246 16.446 19.5331 17.831L18.2055 19.1587H15.9524C13.9481 19.1587 13.629 19.1714 13.0992 19.2863C12.2695 19.4587 11.9567 19.5608 11.2929 19.8863C9.19293 20.9076 7.72487 22.8607 7.33552 25.1522C7.24616 25.6883 7.23339 26.9011 7.23339 35.9136C7.23339 46.8794 7.22063 46.5283 7.5653 47.6517C7.72487 48.1751 8.29295 49.3048 8.58656 49.6878C8.93123 50.1282 9.40994 50.6388 9.81845 50.9771C10.2269 51.3282 10.7695 51.7112 10.8461 51.7112C10.8716 51.7112 10.9418 51.7495 10.9929 51.7941C11.0503 51.8452 11.312 51.9729 11.5737 52.0814C12.0205 52.2665 12.3078 52.3558 13.0737 52.5473C13.329 52.6111 17.0311 52.6367 30.9137 52.6558C46.9857 52.675 48.4857 52.6686 49.041 52.5665C49.7176 52.4516 50.3112 52.2792 50.809 52.0558C50.9878 51.9729 51.1537 51.9026 51.1793 51.9026C51.1984 51.9026 51.2941 51.8516 51.3899 51.7814C51.4856 51.7175 51.7282 51.558 51.9324 51.4303C52.4175 51.1176 53.375 50.1984 53.726 49.7069C54.3707 48.807 54.7728 47.8559 54.977 46.7389C55.0983 46.0943 55.1047 45.7241 55.1047 35.9136C55.1047 26.8755 55.0919 25.6883 55.0026 25.1522C54.9451 24.8203 54.8622 24.4564 54.8111 24.3352C54.76 24.2203 54.7217 24.0798 54.7217 24.0224C54.7217 23.8628 54.1409 22.7267 53.8154 22.248C53.4452 21.7054 52.5516 20.8246 51.9771 20.4289C51.1473 19.8544 50.292 19.497 49.2389 19.2799C48.7155 19.1714 48.3644 19.1587 46.3921 19.1587H44.139L42.7858 17.8183C42.0454 17.0779 41.2667 16.3502 41.0625 16.1907C39.9838 15.3609 38.7838 14.8375 37.1306 14.4737C36.4668 14.3269 25.8075 14.3332 25.1692 14.4801ZM36.6774 19.2863C37.3157 19.4842 37.8774 19.7714 38.2285 20.0714C38.4008 20.2246 39.2497 21.0544 40.1178 21.9161C40.9795 22.7841 41.7837 23.5437 41.905 23.6011C42.5177 23.933 42.639 23.9458 45.4921 23.9458C47.8027 23.9458 48.224 23.9586 48.5559 24.0543C49.0282 24.182 49.3346 24.3671 49.6538 24.7117C49.9793 25.0564 50.0814 25.2479 50.2091 25.7075C50.3112 26.0585 50.3176 26.8947 50.3176 35.9264C50.3176 44.7347 50.3048 45.7943 50.2154 46.1006C49.9665 46.9304 49.4623 47.4602 48.5942 47.7793C48.3261 47.8751 47.0049 47.8815 31.0733 47.8687L13.8396 47.8495L13.4184 47.6453C13.0354 47.4602 12.6141 47.1028 12.3716 46.7581C12.3269 46.6879 12.2248 46.4581 12.1546 46.2538C12.0205 45.8772 12.0205 45.8326 12.0205 35.9136C12.0205 26.5053 12.0269 25.9309 12.1354 25.6373C12.295 25.1968 12.3971 25.0181 12.678 24.7181C13.0035 24.3671 13.3099 24.182 13.7822 24.0543C14.1141 23.9586 14.5354 23.9458 16.846 23.9458C19.6991 23.9458 19.8204 23.933 20.4331 23.6075C20.548 23.5437 21.3522 22.7841 22.2203 21.9161C23.0884 21.0544 23.9373 20.2182 24.116 20.0714C24.4607 19.765 24.9011 19.5416 25.5841 19.3119L26.0309 19.1651L31.1435 19.1587C36.0966 19.1587 36.2753 19.1651 36.6774 19.2863Z" fill="#0095E6"/>
<path d="M44.956 25.6628C43.9603 25.8479 43.0603 26.5947 42.6454 27.584C42.4667 28.0117 42.4475 28.1329 42.4475 28.701C42.4411 29.384 42.5497 29.7988 42.8816 30.3669C43.1433 30.8137 43.8198 31.3818 44.3624 31.6052C44.8347 31.8031 44.873 31.8094 45.6198 31.7839C46.3347 31.7584 46.424 31.7456 46.8389 31.5477C47.1453 31.4009 47.4134 31.2031 47.707 30.9095C48.0963 30.5137 48.2176 30.3222 48.4985 29.6457C48.6516 29.2755 48.6644 28.2095 48.5176 27.8585C48.4602 27.7244 48.3772 27.5202 48.3325 27.4053C48.2176 27.0861 47.7517 26.5181 47.3815 26.2436C46.724 25.7521 45.7475 25.516 44.956 25.6628Z" fill="#0095E6"/>
<path d="M30.4669 26.3777C29.7712 26.4287 29.1712 26.55 28.5202 26.767C28.0159 26.933 26.9755 27.4244 26.7202 27.6223C26.6117 27.7053 26.4968 27.7755 26.4649 27.7755C26.4074 27.7755 25.8011 28.2797 25.3287 28.7202C24.9266 29.0967 24.1798 30.0223 24.0075 30.3605C23.9373 30.501 23.8415 30.6605 23.8033 30.7116C23.7586 30.7627 23.6054 31.0882 23.4586 31.4329C22.7373 33.1371 22.6097 35.0775 23.0948 36.9476C23.5926 38.8625 24.9713 40.7199 26.6947 41.7922C27.4606 42.2645 27.8819 42.4496 28.967 42.7943C29.4648 42.9539 30.518 43.0943 31.1754 43.0943C31.8073 43.0943 33.1669 42.9028 33.3903 42.7816C33.4605 42.7433 33.5754 42.7113 33.6392 42.7113C33.703 42.7113 33.9584 42.6284 34.2009 42.5262C36.4604 41.5943 38.037 40.0242 38.9561 37.8029C39.5753 36.2966 39.6965 34.2732 39.2753 32.5945C38.9242 31.2095 38.0178 29.6776 36.9519 28.6755C36.5625 28.3053 35.9243 27.7755 35.8732 27.7755C35.8541 27.7755 35.7072 27.6925 35.5604 27.5904C34.6605 26.984 33.135 26.4734 32.0116 26.4032C31.7052 26.384 31.3861 26.3585 31.2967 26.3457C31.2073 26.3394 30.8371 26.3521 30.4669 26.3777ZM32.4137 28.8606C33.3009 29.1223 33.5498 29.218 33.9775 29.4478C35.5094 30.2776 36.62 31.7456 37.003 33.4307C37.2264 34.4264 37.1115 35.9009 36.7349 36.871C36.5306 37.4008 36.2051 38.0263 36.0838 38.1157C36.0647 38.1348 35.9626 38.2561 35.8668 38.3838C35.1519 39.3412 33.9392 40.1454 32.7328 40.4773C32.1392 40.6433 30.8308 40.7135 30.2755 40.6178C28.9351 40.3816 27.8436 39.8263 26.9245 38.9136C26.7457 38.7348 26.5287 38.4923 26.4457 38.371C26.3628 38.2497 26.2415 38.0902 26.1777 38.0263C26.1138 37.9561 26.0436 37.8412 26.0245 37.771C25.9989 37.6944 25.9479 37.5923 25.9096 37.5412C25.7628 37.3625 25.4947 36.654 25.3607 36.1051C25.1883 35.3711 25.1883 34.0945 25.3543 33.3605C25.8649 31.1201 27.7095 29.3265 29.9882 28.8606C30.1989 28.8159 30.4031 28.7712 30.435 28.7585C30.5754 28.7074 32.1712 28.7904 32.4137 28.8606Z" fill="#0095E6"/>
<path d="M25.1692 12.4134C23.7905 12.7261 22.7692 13.1282 21.7863 13.7602C21.2118 14.124 20.9246 14.3793 19.5331 15.7644L18.2055 17.092H15.9524C13.9481 17.092 13.629 17.1048 13.0992 17.2196C12.2695 17.392 11.9567 17.4941 11.2929 17.8196C9.19293 18.8409 7.72487 20.794 7.33552 23.0855C7.24616 23.6216 7.23339 24.8344 7.23339 33.8469C7.23339 44.8127 7.22063 44.4616 7.5653 45.585C7.72487 46.1084 8.29295 47.2381 8.58656 47.6211C8.93123 48.0615 9.40994 48.5722 9.81845 48.9105C10.2269 49.2615 10.7695 49.6445 10.8461 49.6445C10.8716 49.6445 10.9418 49.6828 10.9929 49.7275C11.0503 49.7785 11.312 49.9062 11.5737 50.0147C12.0205 50.1998 12.3078 50.2891 13.0737 50.4806C13.329 50.5445 17.0311 50.57 30.9137 50.5891C46.9857 50.6083 48.4857 50.6019 49.041 50.4998C49.7176 50.3849 50.3112 50.2126 50.809 49.9892C50.9878 49.9062 51.1537 49.836 51.1793 49.836C51.1984 49.836 51.2941 49.7849 51.3899 49.7147C51.4856 49.6509 51.7282 49.4913 51.9324 49.3636C52.4175 49.0509 53.375 48.1317 53.726 47.6403C54.3707 46.7403 54.7728 45.7892 54.977 44.6722C55.0983 44.0276 55.1047 43.6574 55.1047 33.8469C55.1047 24.8088 55.0919 23.6216 55.0026 23.0855C54.9451 22.7536 54.8622 22.3898 54.8111 22.2685C54.76 22.1536 54.7217 22.0132 54.7217 21.9557C54.7217 21.7961 54.1409 20.66 53.8154 20.1813C53.4452 19.6387 52.5516 18.7579 51.9771 18.3622C51.1473 17.7877 50.292 17.4303 49.2389 17.2133C48.7155 17.1048 48.3644 17.092 46.3921 17.092H44.139L42.7858 15.7516C42.0454 15.0112 41.2667 14.2835 41.0625 14.124C39.9838 13.2942 38.7838 12.7708 37.1306 12.407C36.4668 12.2602 25.8075 12.2666 25.1692 12.4134ZM36.6774 17.2196C37.3157 17.4175 37.8774 17.7047 38.2285 18.0047C38.4008 18.1579 39.2497 18.9877 40.1178 19.8494C40.9795 20.7174 41.7837 21.477 41.905 21.5345C42.5177 21.8664 42.639 21.8791 45.4921 21.8791C47.8027 21.8791 48.224 21.8919 48.5559 21.9876C49.0282 22.1153 49.3346 22.3004 49.6538 22.6451C49.9793 22.9897 50.0814 23.1812 50.2091 23.6408C50.3112 23.9918 50.3176 24.828 50.3176 33.8597C50.3176 42.668 50.3048 43.7276 50.2154 44.034C49.9665 44.8637 49.4623 45.3935 48.5942 45.7127C48.3261 45.8084 47.0049 45.8148 31.0733 45.802L13.8396 45.7829L13.4184 45.5786C13.0354 45.3935 12.6141 45.0361 12.3716 44.6914C12.3269 44.6212 12.2248 44.3914 12.1546 44.1872C12.0205 43.8106 12.0205 43.7659 12.0205 33.8469C12.0205 24.4386 12.0269 23.8642 12.1354 23.5706C12.295 23.1302 12.3971 22.9514 12.678 22.6514C13.0035 22.3004 13.3099 22.1153 13.7822 21.9876C14.1141 21.8919 14.5354 21.8791 16.846 21.8791C19.6991 21.8791 19.8204 21.8664 20.4331 21.5408C20.548 21.477 21.3522 20.7174 22.2203 19.8494C23.0884 18.9877 23.9373 18.1515 24.116 18.0047C24.4607 17.6984 24.9011 17.475 25.5841 17.2452L26.0309 17.0984L31.1435 17.092C36.0966 17.092 36.2753 17.0984 36.6774 17.2196Z" fill="#007BBD"/>
<path d="M44.956 23.5961C43.9603 23.7812 43.0603 24.528 42.6454 25.5173C42.4667 25.945 42.4475 26.0662 42.4475 26.6343C42.4411 27.3173 42.5497 27.7322 42.8816 28.3002C43.1433 28.747 43.8198 29.3151 44.3624 29.5385C44.8347 29.7364 44.873 29.7428 45.6198 29.7172C46.3347 29.6917 46.424 29.6789 46.8389 29.4811C47.1453 29.3343 47.4134 29.1364 47.707 28.8428C48.0963 28.447 48.2176 28.2556 48.4985 27.579C48.6516 27.2088 48.6644 26.1428 48.5176 25.7918C48.4602 25.6577 48.3772 25.4535 48.3325 25.3386C48.2176 25.0195 47.7517 24.4514 47.3815 24.1769C46.724 23.6854 45.7475 23.4493 44.956 23.5961Z" fill="#007BBD"/>
<path d="M30.4669 24.311C29.7712 24.362 29.1712 24.4833 28.5202 24.7003C28.0159 24.8663 26.9755 25.3578 26.7202 25.5556C26.6117 25.6386 26.4968 25.7088 26.4649 25.7088C26.4074 25.7088 25.8011 26.2131 25.3287 26.6535C24.9266 27.0301 24.1798 27.9556 24.0075 28.2939C23.9373 28.4343 23.8415 28.5939 23.8033 28.6449C23.7586 28.696 23.6054 29.0215 23.4586 29.3662C22.7373 31.0704 22.6097 33.0108 23.0948 34.881C23.5926 36.7958 24.9713 38.6532 26.6947 39.7255C27.4606 40.1979 27.8819 40.383 28.967 40.7276C29.4648 40.8872 30.518 41.0276 31.1754 41.0276C31.8073 41.0276 33.1669 40.8361 33.3903 40.7149C33.4605 40.6766 33.5754 40.6447 33.6392 40.6447C33.703 40.6447 33.9584 40.5617 34.2009 40.4596C36.4604 39.5277 38.037 37.9575 38.9561 35.7363C39.5753 34.2299 39.6965 32.2065 39.2753 30.5279C38.9242 29.1428 38.0178 27.6109 36.9519 26.6088C36.5625 26.2386 35.9243 25.7088 35.8732 25.7088C35.8541 25.7088 35.7072 25.6258 35.5604 25.5237C34.6605 24.9173 33.135 24.4067 32.0116 24.3365C31.7052 24.3174 31.3861 24.2918 31.2967 24.2791C31.2073 24.2727 30.8371 24.2854 30.4669 24.311ZM32.4137 26.7939C33.3009 27.0556 33.5498 27.1513 33.9775 27.3811C35.5094 28.2109 36.62 29.6789 37.003 31.364C37.2264 32.3597 37.1115 33.8342 36.7349 34.8044C36.5306 35.3341 36.2051 35.9597 36.0838 36.049C36.0647 36.0682 35.9626 36.1894 35.8668 36.3171C35.1519 37.2745 33.9392 38.0788 32.7328 38.4107C32.1392 38.5766 30.8308 38.6468 30.2755 38.5511C28.9351 38.3149 27.8436 37.7596 26.9245 36.8469C26.7457 36.6682 26.5287 36.4256 26.4457 36.3043C26.3628 36.1831 26.2415 36.0235 26.1777 35.9597C26.1138 35.8894 26.0436 35.7746 26.0245 35.7043C25.9989 35.6278 25.9479 35.5256 25.9096 35.4746C25.7628 35.2958 25.4947 34.5873 25.3607 34.0384C25.1883 33.3044 25.1883 32.0278 25.3543 31.2938C25.8649 29.0534 27.7095 27.2598 29.9882 26.7939C30.1989 26.7492 30.4031 26.7045 30.435 26.6918C30.5754 26.6407 32.1712 26.7237 32.4137 26.7939Z" fill="#007BBD"/>
<path fill-rule="evenodd" clip-rule="evenodd" d="M10 3.00003C4.47715 3.00003 0 7.47718 0 13V55C0 60.5229 4.47715 65 10 65H52C57.5228 65 62 60.5229 62 55V13C62 7.47718 57.5228 3.00003 52 3.00003H10ZM21.7863 15.8268C22.7692 15.1949 23.7905 14.7928 25.1692 14.48C25.8075 14.3332 36.4668 14.3269 37.1306 14.4737C38.7838 14.8375 39.9837 15.3609 41.0625 16.1906C41.2667 16.3502 42.0454 17.0779 42.7858 17.8183L44.139 19.1587H46.3921C48.3644 19.1587 48.7155 19.1714 49.2389 19.2799C50.292 19.497 51.1473 19.8544 51.9771 20.4289C52.5516 20.8246 53.4452 21.7054 53.8154 22.248C54.1409 22.7267 54.7217 23.8628 54.7217 24.0224C54.7217 24.0798 54.76 24.2203 54.8111 24.3351C54.8622 24.4564 54.9451 24.8202 55.0026 25.1522C55.0919 25.6883 55.1047 26.8755 55.1047 35.9136C55.1047 45.724 55.0983 46.0943 54.977 46.7389C54.7728 47.8559 54.3707 48.807 53.726 49.7069C53.375 50.1984 52.4175 51.1175 51.9324 51.4303C51.7282 51.558 51.4856 51.7175 51.3899 51.7814C51.2941 51.8516 51.1984 51.9026 51.1793 51.9026C51.1537 51.9026 50.9878 51.9729 50.809 52.0558C50.3112 52.2792 49.7176 52.4516 49.041 52.5665C48.4857 52.6686 46.9857 52.675 30.9137 52.6558C17.0311 52.6367 13.329 52.6111 13.0737 52.5473C12.3078 52.3558 12.0205 52.2665 11.5737 52.0814C11.312 51.9729 11.0503 51.8452 10.9929 51.7941C10.9418 51.7495 10.8716 51.7112 10.8461 51.7112C10.7695 51.7112 10.2269 51.3282 9.81844 50.9771C9.40994 50.6388 8.93123 50.1282 8.58656 49.6878C8.29295 49.3048 7.72487 48.1751 7.5653 47.6517L7.5377 47.5622L7.53766 47.562C7.50692 47.4626 7.47929 47.3733 7.45444 47.2831C7.23295 46.4796 7.23299 45.615 7.23336 37.0469V37.0469L7.23339 35.9136C7.23339 26.9011 7.24616 25.6883 7.33552 25.1522C7.72487 22.8607 9.19293 20.9076 11.2929 19.8863C11.9567 19.5608 12.2695 19.4587 13.0992 19.2863C13.629 19.1714 13.9481 19.1587 15.9524 19.1587H18.2055L19.5331 17.831C20.9246 16.446 21.2118 16.1906 21.7863 15.8268ZM38.2285 20.0714C37.8774 19.7714 37.3157 19.4842 36.6774 19.2863C36.2753 19.165 36.0966 19.1587 31.1435 19.1587L26.0309 19.165L25.5841 19.3119C24.9011 19.5416 24.4607 19.765 24.116 20.0714C23.9373 20.2182 23.0884 21.0544 22.2203 21.9161C21.3522 22.7841 20.548 23.5437 20.4331 23.6075C19.8204 23.933 19.6991 23.9458 16.846 23.9458C14.5354 23.9458 14.1141 23.9586 13.7822 24.0543C13.3099 24.182 13.0035 24.3671 12.678 24.7181C12.3971 25.0181 12.295 25.1968 12.1354 25.6372C12.0269 25.9309 12.0205 26.5053 12.0205 35.9136C12.0205 45.8326 12.0205 45.8772 12.1546 46.2538C12.2248 46.4581 12.3269 46.6879 12.3716 46.7581C12.6141 47.1027 13.0354 47.4602 13.4184 47.6453L13.8396 47.8495L31.0733 47.8687C47.0049 47.8815 48.3261 47.8751 48.5942 47.7793C49.4623 47.4602 49.9665 46.9304 50.2154 46.1006C50.3048 45.7943 50.3176 44.7347 50.3176 35.9264C50.3176 26.8947 50.3112 26.0585 50.2091 25.7075C50.0814 25.2479 49.9793 25.0564 49.6538 24.7117C49.3346 24.3671 49.0282 24.182 48.5559 24.0543C48.224 23.9586 47.8027 23.9458 45.4921 23.9458C42.639 23.9458 42.5177 23.933 41.905 23.6011C41.7837 23.5437 40.9795 22.7841 40.1178 21.9161C39.2497 21.0544 38.4008 20.2246 38.2285 20.0714ZM44.956 25.6628C43.9603 25.8479 43.0603 26.5947 42.6454 27.584C42.4667 28.0117 42.4475 28.1329 42.4475 28.701C42.4411 29.384 42.5497 29.7988 42.8816 30.3669C43.1433 30.8137 43.8198 31.3818 44.3624 31.6052C44.8347 31.8031 44.873 31.8094 45.6198 31.7839C46.3347 31.7584 46.424 31.7456 46.8389 31.5477C47.1453 31.4009 47.4134 31.2031 47.707 30.9095C48.0963 30.5137 48.2176 30.3222 48.4985 29.6457C48.6516 29.2755 48.6644 28.2095 48.5176 27.8585C48.4602 27.7244 48.3772 27.5202 48.3325 27.4053C48.2176 27.0861 47.7517 26.5181 47.3815 26.2436C46.724 25.7521 45.7475 25.516 44.956 25.6628ZM28.5202 26.767C29.1712 26.55 29.7712 26.4287 30.4669 26.3776C30.8371 26.3521 31.2073 26.3393 31.2967 26.3457C31.3861 26.3585 31.7052 26.384 32.0116 26.4032C33.135 26.4734 34.6605 26.984 35.5604 27.5904C35.7072 27.6925 35.8541 27.7755 35.8732 27.7755C35.9243 27.7755 36.5625 28.3053 36.9519 28.6755C38.0178 29.6776 38.9242 31.2095 39.2753 32.5945C39.6965 34.2732 39.5752 36.2966 38.9561 37.8029C38.037 40.0242 36.4604 41.5943 34.2009 42.5262C33.9584 42.6284 33.703 42.7113 33.6392 42.7113C33.5754 42.7113 33.4605 42.7433 33.3903 42.7815C33.1669 42.9028 31.8073 43.0943 31.1754 43.0943C30.518 43.0943 29.4648 42.9539 28.967 42.7943C27.8819 42.4496 27.4606 42.2645 26.6947 41.7922C24.9713 40.7199 23.5926 38.8625 23.0948 36.9476C22.6097 35.0775 22.7373 33.1371 23.4586 31.4329C23.6054 31.0882 23.7586 30.7627 23.8032 30.7116C23.8415 30.6605 23.9373 30.501 24.0075 30.3605C24.1798 30.0222 24.9266 29.0967 25.3287 28.7201C25.8011 28.2797 26.4074 27.7755 26.4649 27.7755C26.4968 27.7755 26.6117 27.7053 26.7202 27.6223C26.9755 27.4244 28.0159 26.933 28.5202 26.767ZM33.9775 29.4478C33.5499 29.218 33.3009 29.1223 32.4137 28.8606C32.1712 28.7904 30.5754 28.7074 30.435 28.7584C30.4031 28.7712 30.1989 28.8159 29.9882 28.8606C27.7095 29.3265 25.8649 31.1201 25.3543 33.3605C25.1883 34.0945 25.1883 35.3711 25.3607 36.1051C25.4947 36.654 25.7628 37.3625 25.9096 37.5412C25.9479 37.5923 25.9989 37.6944 26.0245 37.771C26.0436 37.8412 26.1138 37.9561 26.1777 38.0263C26.2415 38.0902 26.3628 38.2497 26.4457 38.371C26.5287 38.4923 26.7457 38.7348 26.9245 38.9135C27.8436 39.8263 28.9351 40.3816 30.2755 40.6178C30.8308 40.7135 32.1392 40.6433 32.7328 40.4773C33.9392 40.1454 35.1519 39.3412 35.8668 38.3838C35.9626 38.2561 36.0647 38.1348 36.0838 38.1157C36.2051 38.0263 36.5306 37.4008 36.7349 36.871C37.1115 35.9008 37.2264 34.4264 37.003 33.4307C36.62 31.7456 35.5094 30.2776 33.9775 29.4478Z" fill="white"/>
</svg>
