<svg width="53" height="53" viewBox="0 0 53 53" fill="none" xmlns="http://www.w3.org/2000/svg">
<path d="M6.72499 8.59941C6.26229 8.66776 5.98888 8.73085 5.77856 8.83075C4.75852 9.29345 4.26953 9.66151 3.75425 10.3608C3.09175 11.2547 2.83412 12.1327 2.83937 13.463C2.83937 14.5198 2.97608 15.2349 3.34414 16.1445C4.02241 17.8218 5.51566 19.2362 7.19294 19.7936C8.2235 20.1353 7.52419 20.109 16.6888 20.1406C24.7387 20.1669 25.0226 20.1721 25.0384 20.2615C25.0489 20.3193 24.9858 20.5297 24.9017 20.7347C24.8123 20.945 24.6703 21.3131 24.5757 21.5602C24.4863 21.8073 24.3811 22.0913 24.3391 22.1912C24.2129 22.5119 23.9079 23.3111 23.8133 23.5845C23.6345 24.0735 24.2129 24.0262 18.508 24.042C13.8653 24.0577 13.4236 24.063 13.0871 24.1524C12.4404 24.3154 12.1459 24.4048 11.9934 24.4836C11.9093 24.5257 11.8094 24.5572 11.7673 24.5572C11.7253 24.5572 11.5045 24.6624 11.2731 24.7939C11.0418 24.9253 10.842 25.0305 10.8262 25.0305C10.7789 25.0305 10.0217 25.5983 9.70624 25.8665C9.36973 26.1557 8.81239 26.8076 8.5232 27.2546C8.25505 27.6699 7.89751 28.3903 7.77658 28.7636C7.724 28.9213 7.65564 29.1474 7.61884 29.2631C7.57677 29.3788 7.50842 29.7048 7.4611 29.9887C7.30862 30.8405 7.41904 32.3968 7.64513 32.6229C7.67142 32.6492 7.69771 32.7176 7.69771 32.7701C7.69771 32.9068 8.17618 33.7429 8.41279 34.0163C8.97538 34.6735 9.90078 35.2624 10.7473 35.5043C11.1364 35.6147 11.1942 35.6199 17.0568 35.6462C22.5987 35.6778 22.9878 35.683 23.2086 35.7724C23.3401 35.825 23.5083 35.8881 23.5819 35.9091C23.6555 35.9354 23.7607 35.9775 23.8185 36.009C23.9132 36.0564 24.0446 36.1089 24.5652 36.3035C24.6703 36.3455 24.949 36.4507 25.1803 36.5453C25.4117 36.64 25.6904 36.7451 25.8008 36.7872C26.2635 36.9607 26.4054 37.0133 26.6789 37.1237C26.8366 37.1815 27.0154 37.2552 27.0732 37.2815C27.1994 37.334 27.7252 37.5391 28.3772 37.7862C28.6453 37.8861 28.9082 37.9913 28.9661 38.0176C29.0239 38.0439 29.1922 38.1122 29.3341 38.1648C30.7485 38.7116 31.1586 38.8904 31.2059 38.9692C31.2322 39.0218 31.2533 40.1838 31.2533 41.8138C31.2533 43.8854 31.269 44.5847 31.3164 44.632C31.3637 44.6794 33.4353 44.6951 40.3074 44.6951C49.2039 44.6951 49.2301 44.6951 49.288 44.59C49.33 44.5164 49.3406 42.9022 49.3248 39.1585C49.309 34.5315 49.2932 33.7691 49.2196 33.3065C49.0777 32.4336 48.8516 31.5661 48.657 31.156C48.6307 31.0981 48.5466 30.9036 48.4783 30.7248C48.2627 30.2095 47.8736 29.5575 46.7379 27.8172C46.6169 27.6279 46.3383 27.202 46.1227 26.8707C45.9071 26.5395 45.5917 26.0505 45.4234 25.7929C45.2499 25.53 45.0869 25.2723 45.0553 25.2145C45.0185 25.1566 44.845 24.878 44.6557 24.5993C44.4717 24.3154 44.0616 23.6844 43.7409 23.1902C42.521 21.3078 42.1845 20.7873 41.9952 20.5086C41.8848 20.3509 41.7849 20.1984 41.7744 20.1669C41.7534 20.1143 41.501 19.7252 40.4284 18.09C40.1339 17.6431 39.8815 17.2487 39.871 17.2224C39.8605 17.1909 39.6397 16.8491 39.382 16.46C38.5408 15.1771 38.4356 15.0193 37.9834 14.3148C37.7363 13.931 37.3157 13.279 37.0475 12.8689C36.7794 12.4587 36.4481 11.9435 36.3114 11.7279C36.1747 11.5123 36.0485 11.3072 36.0275 11.281C36.0012 11.2494 35.8697 11.0759 35.7278 10.8866C35.4649 10.5448 34.9496 9.9875 34.7445 9.82976C33.8402 9.13572 32.8727 8.73085 31.8053 8.59415C30.9798 8.48899 7.44533 8.49425 6.72499 8.59941ZM31.8632 12.5849C32.2575 12.7689 32.6098 13.1212 32.9884 13.7259C33.2881 14.1991 34.1294 15.5031 34.7656 16.4653C34.9706 16.786 35.1441 17.0594 35.1441 17.0647C35.1441 17.0752 35.223 17.1961 35.3124 17.3276C35.407 17.459 35.5227 17.6325 35.5648 17.7114C35.6121 17.7903 35.8802 18.2057 36.1642 18.6421C36.4481 19.0732 36.7899 19.5938 36.9213 19.7988C37.0528 19.9986 37.221 20.2563 37.2946 20.3667C37.3682 20.4771 37.4576 20.6033 37.4839 20.6559C37.5155 20.7032 37.5786 20.8031 37.6206 20.8767C37.6679 20.9503 37.8677 21.2553 38.0623 21.5602C38.2568 21.8652 38.525 22.2753 38.6617 22.4804C38.7984 22.6802 38.9246 22.8694 38.9351 22.901C38.9456 22.9273 39.1612 23.269 39.4188 23.6476C39.6712 24.0314 39.8763 24.3522 39.8763 24.3627C39.8763 24.3732 40.1655 24.8201 40.523 25.3564C41.4537 26.7814 42.1582 27.854 42.2161 27.9644C42.2686 28.0538 42.4211 28.2904 42.9206 29.0528C43.0521 29.2526 43.1888 29.4576 43.2151 29.5102C43.2466 29.5575 43.3623 29.7363 43.4727 29.9046C43.5884 30.0728 43.7829 30.3725 43.9144 30.5776C44.0458 30.7774 44.2509 31.0981 44.3771 31.2874C44.9344 32.1497 45.3025 33.1277 45.3971 34.0215C45.4602 34.5684 45.4655 40.6465 45.4076 40.7412C45.3708 40.7938 44.3087 40.8043 40.2654 40.7938L35.1704 40.778L35.1389 39.5687C35.1073 38.2384 35.0495 37.8966 34.7656 37.292C34.3817 36.4612 33.7192 35.7987 32.8832 35.3991C32.7518 35.3413 32.3417 35.173 31.9631 35.0258C31.5898 34.8838 31.1271 34.7051 30.9378 34.6262C30.5645 34.4685 30.4435 34.4264 29.781 34.1793C29.5339 34.0846 29.2027 33.9584 29.0449 33.8901C28.8872 33.827 28.6138 33.7166 28.4403 33.6535C28.2668 33.5904 27.946 33.4642 27.7304 33.3801C27.5149 33.2907 27.252 33.1908 27.1521 33.154C27.0522 33.1119 26.5684 32.9226 26.0742 32.7333C24.5757 32.1444 24.3864 32.0761 23.7397 31.9026C23.3506 31.7974 23.1876 31.7922 17.4932 31.7659C11.6622 31.7343 11.6464 31.7343 11.4992 31.6239C11.0891 31.3137 11.2205 30.2411 11.7831 29.3735C12.1091 28.8688 12.4772 28.5428 13.0082 28.2746C13.8127 27.8803 13.3658 27.9065 19.1863 27.8697C24.9332 27.8329 24.602 27.854 25.2908 27.5227C25.6798 27.3334 26.3371 26.8392 26.5474 26.5815C27.0154 25.9979 27.1889 25.6404 27.7567 24.1103C27.8672 23.8211 27.9933 23.4794 28.0459 23.3479C28.0932 23.2165 28.2247 22.8747 28.3351 22.5855C28.4455 22.2963 28.6138 21.8441 28.7189 21.5865C29.3394 19.9934 29.413 19.7357 29.413 19.1784C29.413 18.0059 28.7189 16.9753 27.6043 16.4916L27.2309 16.3286L18.0558 16.3023C10.9156 16.276 8.82816 16.255 8.64413 16.2024C7.87122 15.9868 7.20872 15.3716 6.88273 14.5777C6.76179 14.2832 6.75128 14.1833 6.75128 13.5208C6.75128 12.7216 6.77231 12.6533 7.09304 12.4903C7.23501 12.4219 8.5863 12.4114 19.3966 12.4272L31.5424 12.4377L31.8632 12.5849Z" fill="#0095E6"/>
<path d="M6.72499 6.49355C6.26229 6.5619 5.98888 6.625 5.77856 6.7249C4.75852 7.1876 4.26953 7.55565 3.75425 8.25496C3.09175 9.14881 2.83412 10.0269 2.83937 11.3571C2.83937 12.414 2.97608 13.1291 3.34414 14.0387C4.02241 15.716 5.51566 17.1304 7.19294 17.6877C8.2235 18.0295 7.52419 18.0032 16.6888 18.0347C24.7387 18.061 25.0226 18.0663 25.0384 18.1557C25.0489 18.2135 24.9858 18.4238 24.9017 18.6289C24.8123 18.8392 24.6703 19.2072 24.5757 19.4544C24.4863 19.7015 24.3811 19.9854 24.3391 20.0853C24.2129 20.406 23.9079 21.2053 23.8133 21.4787C23.6345 21.9677 24.2129 21.9203 18.508 21.9361C13.8653 21.9519 13.4236 21.9571 13.0871 22.0465C12.4404 22.2095 12.1459 22.2989 11.9934 22.3778C11.9093 22.4198 11.8094 22.4514 11.7673 22.4514C11.7253 22.4514 11.5045 22.5565 11.2731 22.688C11.0418 22.8194 10.842 22.9246 10.8262 22.9246C10.7789 22.9246 10.0217 23.4925 9.70624 23.7606C9.36973 24.0498 8.81239 24.7018 8.5232 25.1487C8.25505 25.5641 7.89751 26.2844 7.77658 26.6577C7.724 26.8155 7.65564 27.0416 7.61884 27.1572C7.57677 27.2729 7.50842 27.5989 7.4611 27.8828C7.30862 28.7346 7.41904 30.291 7.64513 30.5171C7.67142 30.5434 7.69771 30.6117 7.69771 30.6643C7.69771 30.801 8.17618 31.637 8.41279 31.9104C8.97538 32.5677 9.90078 33.1565 10.7473 33.3984C11.1364 33.5088 11.1942 33.5141 17.0568 33.5404C22.5987 33.5719 22.9878 33.5772 23.2086 33.6666C23.3401 33.7191 23.5083 33.7822 23.5819 33.8033C23.6555 33.8296 23.7607 33.8716 23.8185 33.9032C23.9132 33.9505 24.0446 34.0031 24.5652 34.1976C24.6703 34.2397 24.949 34.3448 25.1803 34.4395C25.4117 34.5341 25.6904 34.6393 25.8008 34.6813C26.2635 34.8549 26.4054 34.9074 26.6789 35.0179C26.8366 35.0757 27.0154 35.1493 27.0732 35.1756C27.1994 35.2282 27.7252 35.4332 28.3772 35.6804C28.6453 35.7803 28.9082 35.8854 28.9661 35.9117C29.0239 35.938 29.1922 36.0063 29.3341 36.0589C30.7485 36.6058 31.1586 36.7845 31.2059 36.8634C31.2322 36.916 31.2533 38.078 31.2533 39.7079C31.2533 41.7796 31.269 42.4789 31.3164 42.5262C31.3637 42.5735 33.4353 42.5893 40.3074 42.5893C49.2039 42.5893 49.2301 42.5893 49.288 42.4841C49.33 42.4105 49.3406 40.7963 49.3248 37.0527C49.309 32.4257 49.2932 31.6633 49.2196 31.2006C49.0777 30.3278 48.8516 29.4602 48.657 29.0501C48.6307 28.9923 48.5466 28.7977 48.4783 28.6189C48.2627 28.1037 47.8736 27.4517 46.7379 25.7113C46.6169 25.522 46.3383 25.0961 46.1227 24.7649C45.9071 24.4336 45.5917 23.9446 45.4234 23.687C45.2499 23.4241 45.0869 23.1665 45.0553 23.1086C45.0185 23.0508 44.845 22.7721 44.6557 22.4934C44.4717 22.2095 44.0616 21.5786 43.7409 21.0843C42.521 19.202 42.1845 18.6814 41.9952 18.4028C41.8848 18.245 41.7849 18.0926 41.7744 18.061C41.7534 18.0084 41.501 17.6193 40.4284 15.9841C40.1339 15.5372 39.8815 15.1429 39.871 15.1166C39.8605 15.085 39.6397 14.7433 39.382 14.3542C38.5408 13.0712 38.4356 12.9135 37.9834 12.2089C37.7363 11.8251 37.3157 11.1731 37.0475 10.763C36.7794 10.3529 36.4481 9.8376 36.3114 9.62202C36.1747 9.40644 36.0485 9.20139 36.0275 9.1751C36.0012 9.14355 35.8697 8.97004 35.7278 8.78075C35.4649 8.43898 34.9496 7.88164 34.7445 7.7239C33.8402 7.02986 32.8727 6.625 31.8053 6.48829C30.9798 6.38313 7.44533 6.38839 6.72499 6.49355ZM31.8632 10.4791C32.2575 10.6631 32.6098 11.0154 32.9884 11.62C33.2881 12.0933 34.1294 13.3972 34.7656 14.3594C34.9706 14.6802 35.1441 14.9536 35.1441 14.9588C35.1441 14.9693 35.223 15.0903 35.3124 15.2217C35.407 15.3532 35.5227 15.5267 35.5648 15.6056C35.6121 15.6844 35.8802 16.0998 36.1642 16.5362C36.4481 16.9674 36.7899 17.4879 36.9213 17.693C37.0528 17.8928 37.221 18.1504 37.2946 18.2608C37.3682 18.3712 37.4576 18.4974 37.4839 18.55C37.5155 18.5973 37.5786 18.6972 37.6206 18.7708C37.6679 18.8444 37.8677 19.1494 38.0623 19.4544C38.2568 19.7593 38.525 20.1694 38.6617 20.3745C38.7984 20.5743 38.9246 20.7636 38.9351 20.7951C38.9456 20.8214 39.1612 21.1632 39.4188 21.5418C39.6712 21.9256 39.8763 22.2463 39.8763 22.2568C39.8763 22.2674 40.1655 22.7143 40.523 23.2506C41.4537 24.6755 42.1582 25.7481 42.2161 25.8585C42.2686 25.9479 42.4211 26.1845 42.9206 26.9469C43.0521 27.1467 43.1888 27.3518 43.2151 27.4044C43.2466 27.4517 43.3623 27.6305 43.4727 27.7987C43.5884 27.967 43.7829 28.2667 43.9144 28.4717C44.0458 28.6715 44.2509 28.9923 44.3771 29.1815C44.9344 30.0438 45.3025 31.0218 45.3971 31.9157C45.4602 32.4625 45.4655 38.5407 45.4076 38.6353C45.3708 38.6879 44.3087 38.6984 40.2654 38.6879L35.1704 38.6721L35.1389 37.4628C35.1073 36.1325 35.0495 35.7908 34.7656 35.1861C34.3817 34.3554 33.7192 33.6929 32.8832 33.2933C32.7518 33.2354 32.3417 33.0672 31.9631 32.9199C31.5898 32.778 31.1271 32.5992 30.9378 32.5203C30.5645 32.3626 30.4435 32.3205 29.781 32.0734C29.5339 31.9788 29.2027 31.8526 29.0449 31.7842C28.8872 31.7211 28.6138 31.6107 28.4403 31.5476C28.2668 31.4845 27.946 31.3583 27.7304 31.2742C27.5149 31.1848 27.252 31.0849 27.1521 31.0481C27.0522 31.006 26.5684 30.8168 26.0742 30.6275C24.5757 30.0386 24.3864 29.9702 23.7397 29.7967C23.3506 29.6916 23.1876 29.6863 17.4932 29.66C11.6622 29.6285 11.6464 29.6285 11.4992 29.5181C11.0891 29.2078 11.2205 28.1352 11.7831 27.2677C12.1091 26.7629 12.4772 26.4369 13.0082 26.1687C13.8127 25.7744 13.3658 25.8007 19.1863 25.7639C24.9332 25.7271 24.602 25.7481 25.2908 25.4169C25.6798 25.2276 26.3371 24.7333 26.5474 24.4757C27.0154 23.8921 27.1889 23.5345 27.7567 22.0045C27.8672 21.7153 27.9933 21.3735 28.0459 21.2421C28.0932 21.1106 28.2247 20.7688 28.3351 20.4797C28.4455 20.1905 28.6138 19.7383 28.7189 19.4807C29.3394 17.8875 29.413 17.6299 29.413 17.0725C29.413 15.9 28.7189 14.8694 27.6043 14.3857L27.2309 14.2227L18.0558 14.1964C10.9156 14.1701 8.82816 14.1491 8.64413 14.0965C7.87122 13.8809 7.20872 13.2658 6.88273 12.4718C6.76179 12.1774 6.75128 12.0775 6.75128 11.415C6.75128 10.6158 6.77231 10.5474 7.09304 10.3844C7.23501 10.3161 8.5863 10.3056 19.3966 10.3213L31.5424 10.3318L31.8632 10.4791Z" fill="#007BBD"/>
<path fill-rule="evenodd" clip-rule="evenodd" d="M10 0C4.47715 0 0 4.47715 0 10V40C0 45.5228 4.47715 50 10 50H40C43.792 50 47.0911 47.8894 48.7864 44.7788C47.8147 44.7976 45.6186 44.7976 40.6018 44.7976C33.7297 44.7976 31.658 44.7818 31.6107 44.7345C31.5634 44.6872 31.5476 43.9879 31.5476 41.9163C31.5476 40.2863 31.5266 39.1243 31.5003 39.0717C31.453 38.9929 31.0428 38.8141 29.6285 38.2673C29.4865 38.2147 29.3182 38.1463 29.2604 38.12C29.2026 38.0937 28.9397 37.9886 28.6715 37.8887C28.0195 37.6416 27.4937 37.4365 27.3676 37.3839C27.3097 37.3576 27.1309 37.284 26.9732 37.2262C26.7203 37.1241 26.5799 37.0714 26.194 36.9268L26.0951 36.8897C26.0837 36.8853 26.0704 36.8803 26.0556 36.8747C25.9275 36.8259 25.6821 36.7327 25.4747 36.6478C25.3223 36.5855 25.1494 36.5186 25.019 36.4681C24.9515 36.442 24.8954 36.4203 24.8595 36.406C24.339 36.2114 24.2075 36.1588 24.1129 36.1115C24.055 36.08 23.9499 36.0379 23.8763 36.0116C23.8027 35.9906 23.6344 35.9275 23.503 35.8749C23.2821 35.7855 22.893 35.7803 17.3512 35.7487C11.4886 35.7224 11.4307 35.7172 11.0417 35.6067C10.1951 35.3649 9.26973 34.776 8.70714 34.1187C8.47053 33.8453 7.99206 33.0093 7.99206 32.8726C7.99206 32.82 7.96577 32.7517 7.93948 32.7254C7.71339 32.4993 7.60297 30.943 7.75545 30.0912C7.80277 29.8072 7.87112 29.4812 7.91319 29.3656C7.92545 29.327 7.94123 29.2762 7.95875 29.2197C7.99381 29.1068 8.03587 28.9712 8.07092 28.8661C8.19186 28.4928 8.5494 27.7724 8.81755 27.357C9.10674 26.9101 9.66408 26.2581 10.0006 25.9689C10.3161 25.7008 11.0732 25.1329 11.1205 25.1329C11.1363 25.1329 11.3361 25.0278 11.5675 24.8963C11.7988 24.7649 12.0196 24.6597 12.0617 24.6597C12.1038 24.6597 12.2037 24.6282 12.2878 24.5861C12.4403 24.5072 12.7347 24.4179 13.3814 24.2549C13.7179 24.1655 14.1596 24.1602 18.8024 24.1444C23.3185 24.132 23.8971 24.159 24.0308 23.9282C24.066 23.8675 24.0704 23.7889 24.1076 23.687C24.2023 23.4136 24.5072 22.6144 24.6334 22.2936C24.6755 22.1937 24.7806 21.9098 24.87 21.6627C24.9647 21.4156 25.1066 21.0475 25.196 20.8372C25.2802 20.6321 25.3432 20.4218 25.3327 20.364C25.317 20.2746 25.033 20.2693 16.9831 20.2431C9.2588 20.2165 8.54166 20.231 7.88999 20.0315C7.76848 19.9944 7.64925 19.9497 7.48729 19.896C5.81001 19.3387 4.31676 17.9243 3.63848 16.247C3.27043 15.3374 3.13372 14.6223 3.13372 13.5655C3.12846 12.2352 3.3861 11.3571 4.0486 10.4633C4.56388 9.76398 5.05287 9.39593 6.07291 8.93323C6.28323 8.83333 6.55664 8.77024 7.01934 8.70188C7.73967 8.59673 31.2742 8.59146 32.0997 8.69662C33.1671 8.83333 34.1345 9.23819 35.0389 9.93224C35.2439 10.09 35.7592 10.6473 36.0221 10.9891C36.1641 11.1784 36.2955 11.3519 36.3218 11.3834C36.3353 11.4003 36.3924 11.4912 36.4677 11.6112C36.5095 11.6778 36.5569 11.7534 36.6057 11.8304C36.7425 12.0459 37.0737 12.5612 37.3419 12.9713C37.61 13.3814 38.0306 14.0334 38.2778 14.4173C38.6645 15.0198 38.7974 15.2224 39.354 16.071C39.4482 16.2146 39.5546 16.3768 39.6764 16.5625C39.934 16.9516 40.1549 17.2934 40.1654 17.3249C40.1759 17.3512 40.4283 17.7455 40.7227 18.1925C41.7953 19.8277 42.0477 20.2168 42.0687 20.2693C42.0793 20.3009 42.1792 20.4534 42.2896 20.6111C42.4629 20.8663 42.7597 21.3243 43.7453 22.8453L44.0352 23.2927C44.1823 23.5193 44.3482 23.7748 44.5025 24.0123C44.6846 24.2926 44.8505 24.5481 44.9501 24.7018C45.1134 24.9423 45.2651 25.1828 45.3272 25.2813C45.337 25.297 45.3447 25.309 45.3497 25.317C45.3812 25.3748 45.5442 25.6324 45.7178 25.8953C45.8079 26.0334 45.9403 26.2379 46.077 26.4489C46.1954 26.6317 46.317 26.8195 46.4171 26.9732C46.4787 27.068 46.5456 27.1705 46.6124 27.2731C46.7792 27.5288 46.9459 27.7845 47.0322 27.9196C48.1679 29.66 48.557 30.312 48.7726 30.8273C48.841 31.0061 48.9251 31.2006 48.9514 31.2584C49.1459 31.6686 49.372 32.5361 49.514 33.4089C49.5876 33.8716 49.6034 34.634 49.6191 39.261C49.6253 40.7309 49.6275 41.8724 49.6252 42.7214C49.8694 41.8562 50 40.9433 50 40V10C50 4.47715 45.5228 0 40 0H10ZM33.2827 13.8284C32.9042 13.2237 32.5519 12.8714 32.1575 12.6874L31.8368 12.5402L19.691 12.5297C8.88065 12.5139 7.52936 12.5244 7.38739 12.5928C7.06666 12.7558 7.04563 12.8241 7.04563 13.6233C7.04563 14.2858 7.05614 14.3857 7.17708 14.6802C7.50307 15.4741 8.16557 16.0893 8.93848 16.3049C9.12251 16.3574 11.2099 16.3785 18.3502 16.4048L27.5253 16.431L27.8986 16.594C29.0133 17.0778 29.7073 18.1083 29.7073 19.2809C29.7073 19.8382 29.6337 20.0958 29.0133 21.689C28.9362 21.8779 28.8252 22.1713 28.7279 22.4284C28.6925 22.522 28.6589 22.6108 28.6295 22.688C28.6074 22.7458 28.5844 22.8058 28.5615 22.8658C28.4698 23.1055 28.3781 23.3452 28.3403 23.4504C28.3099 23.5263 28.255 23.6724 28.1927 23.8381C28.1472 23.9592 28.0977 24.0907 28.0511 24.2128C27.4832 25.7429 27.3097 26.1004 26.8418 26.684C26.6314 26.9417 25.9742 27.4359 25.5851 27.6252C25.4745 27.6784 25.3901 27.7225 25.3027 27.7593C24.8459 27.9512 24.3043 27.9413 19.4806 27.9722C14.738 28.0022 14.1565 27.9903 13.6685 28.1982C13.5576 28.2454 13.4516 28.3041 13.3026 28.3771C12.7715 28.6452 12.4035 28.9712 12.0775 29.476C11.5149 30.3435 11.3834 31.4162 11.7935 31.7264C11.9407 31.8367 11.9565 31.8368 17.774 31.8683L17.7876 31.8684C23.4819 31.8946 23.6449 31.8999 24.034 32.0051C24.6807 32.1786 24.87 32.2469 26.3685 32.8358C26.8628 33.0251 27.3465 33.2144 27.4464 33.2564C27.5463 33.2933 27.8092 33.3932 28.0248 33.4825C28.0565 33.4949 28.0904 33.5082 28.1258 33.522C28.3314 33.6024 28.5866 33.7021 28.7346 33.756C28.8878 33.8116 29.1188 33.9042 29.2794 33.9686C29.3007 33.9771 29.3208 33.9852 29.3393 33.9926C29.4858 34.056 29.782 34.1694 30.0214 34.2611L30.0754 34.2817C30.1657 34.3154 30.246 34.3453 30.3182 34.3722C30.7756 34.5425 30.9097 34.5924 31.2321 34.7287C31.4214 34.8075 31.8841 34.9863 32.2574 35.1283C32.636 35.2755 33.0461 35.4437 33.1776 35.5016C34.0136 35.9012 34.6761 36.5637 35.0599 37.3944C35.3438 37.9991 35.4017 38.3409 35.4332 39.6711L35.4648 40.8805L40.5597 40.8962C44.6031 40.9067 45.6652 40.8962 45.702 40.8436C45.7598 40.749 45.7546 34.6708 45.6915 34.124C45.5968 33.2302 45.2288 32.2522 44.6714 31.3899C44.5994 31.2818 44.5016 31.1309 44.4066 30.9841C44.3351 30.8738 44.2651 30.7658 44.2087 30.6801C44.0773 30.475 43.8827 30.1753 43.7671 30.007C43.7101 29.9203 43.6518 29.8307 43.6043 29.7578C43.5597 29.6894 43.5247 29.6356 43.5094 29.6127C43.4872 29.5682 43.3857 29.4143 43.2754 29.2469C43.2554 29.2166 43.2351 29.1859 43.215 29.1553C42.7155 28.3929 42.563 28.1562 42.5104 28.0669C42.4636 27.9776 41.9938 27.2588 41.3234 26.2333C41.1649 25.9909 40.9953 25.7313 40.8174 25.4589C40.4598 24.9226 40.1706 24.4757 40.1706 24.4652C40.1706 24.4547 39.9656 24.1339 39.7132 23.7501C39.4555 23.3715 39.24 23.0298 39.2295 23.0035C39.2189 22.9719 39.0928 22.7826 38.956 22.5828C38.8193 22.3778 38.5512 21.9677 38.3566 21.6627C38.2159 21.4421 38.0725 21.2215 37.9859 21.0885C37.9528 21.0376 37.9281 20.9995 37.915 20.9792C37.8729 20.9056 37.8098 20.8057 37.7783 20.7583C37.7593 20.7204 37.7075 20.6442 37.6525 20.5632C37.6312 20.5319 37.6095 20.4999 37.589 20.4691C37.5427 20.3997 37.4589 20.2719 37.3704 20.137C37.3182 20.0574 37.2644 19.9754 37.2157 19.9013C37.0842 19.6962 36.7425 19.1757 36.4585 18.7445C36.1746 18.3081 35.9064 17.8928 35.8591 17.8139C35.8171 17.735 35.7014 17.5615 35.6067 17.4301C35.5174 17.2986 35.4385 17.1777 35.4385 17.1672C35.4385 17.1619 35.265 16.8885 35.0599 16.5678C34.4237 15.6056 33.5824 14.3016 33.2827 13.8284Z" fill="white"/>
</svg>
