<svg width="75" height="75" viewBox="0 0 75 75" fill="none" xmlns="http://www.w3.org/2000/svg">
<path fill-rule="evenodd" clip-rule="evenodd" d="M61 17.2609C61 16.1083 60.0656 15.1739 58.913 15.1739L41.5864 15.1739C41.5408 11.7562 38.8138 9 35.4565 9C32.0992 9 29.3722 11.7562 29.3267 15.1739H16.087C14.9344 15.1739 14 16.1083 14 17.2609C14 18.4135 14.9344 19.3478 16.087 19.3478L30.8123 19.3478C31.9365 20.6791 33.6001 21.5217 35.4565 21.5217C37.3129 21.5217 38.9766 20.6791 40.1008 19.3478H58.913C60.0656 19.3478 61 18.4135 61 17.2609Z" fill="#007BBD"/>
<path fill-rule="evenodd" clip-rule="evenodd" d="M61 35C61 33.8474 60.0656 32.913 58.913 32.913H52.8168C52.6401 29.617 49.9671 27 46.6956 27C43.4242 27 40.7512 29.617 40.5745 32.913L16.087 32.913C14.9344 32.913 14 33.8474 14 35C14 36.1526 14.9344 37.087 16.087 37.087L41.8428 37.087C42.9639 38.568 44.7207 39.5217 46.6956 39.5217C48.6705 39.5217 50.4273 38.568 51.5485 37.087H58.913C60.0656 37.087 61 36.1526 61 35Z" fill="#007BBD"/>
<path fill-rule="evenodd" clip-rule="evenodd" d="M61 52.7391C61 51.5865 60.0656 50.6522 58.913 50.6522H34.423C34.4308 50.5228 34.4348 50.3923 34.4348 50.2609C34.4348 46.8031 31.6901 44 28.3043 44C24.9186 44 22.1739 46.8031 22.1739 50.2609C22.1739 50.3923 22.1779 50.5228 22.1857 50.6522L16.087 50.6522C14.9344 50.6522 14 51.5865 14 52.7391C14 53.8917 14.9344 54.8261 16.087 54.8261L24.109 54.8261C25.2057 55.8776 26.6814 56.5217 28.3043 56.5217C29.9273 56.5217 31.403 55.8776 32.4997 54.8261H58.913C60.0656 54.8261 61 53.8917 61 52.7391Z" fill="#007BBD"/>
<path fill-rule="evenodd" clip-rule="evenodd" d="M10 0C4.47715 0 0 4.47715 0 10V65C0 70.5228 4.47715 75 10 75H65C70.5228 75 75 70.5228 75 65V10C75 4.47715 70.5228 0 65 0H10ZM58.913 17.1739C60.0656 17.1739 61 18.1083 61 19.2609C61 20.4135 60.0656 21.3478 58.913 21.3478H41.2381C40.3965 23.7795 38.1257 25.5217 35.4565 25.5217C32.7873 25.5217 30.5165 23.7795 29.6749 21.3478H16.087C14.9344 21.3478 14 20.4135 14 19.2609C14 18.1083 14.9344 17.1739 16.087 17.1739H29.6749C30.5165 14.7422 32.7873 13 35.4565 13C38.1257 13 40.3965 14.7422 41.2381 17.1739H58.913ZM61 37C61 35.8474 60.0656 34.913 58.913 34.913H52.4772C51.6357 32.4813 49.3649 30.7391 46.6956 30.7391C44.0264 30.7391 41.7556 32.4813 40.914 34.913H16.087C14.9344 34.913 14 35.8474 14 37C14 38.1526 14.9344 39.087 16.087 39.087H40.914C41.7556 41.5187 44.0264 43.2609 46.6956 43.2609C49.3649 43.2609 51.6357 41.5187 52.4773 39.087H58.913C60.0656 39.087 61 38.1526 61 37ZM58.913 52.6522C60.0656 52.6522 61 53.5865 61 54.7391C61 55.8917 60.0656 56.8261 58.913 56.8261H34.086C33.2444 59.2578 30.9736 61 28.3043 61C25.6351 61 23.3643 59.2578 22.5227 56.8261H16.087C14.9344 56.8261 14 55.8917 14 54.7391C14 53.5865 14.9344 52.6522 16.087 52.6522H22.5228C23.3643 50.2205 25.6351 48.4783 28.3043 48.4783C30.9736 48.4783 33.2444 50.2205 34.0859 52.6522H58.913Z" fill="white"/>
</svg>
