<svg width="56" height="56" viewBox="0 0 56 56" fill="none" xmlns="http://www.w3.org/2000/svg">
<path fill-rule="evenodd" clip-rule="evenodd" d="M51 10.2609C51 9.10828 50.0656 8.17391 48.913 8.17391L31.2381 8.17391C30.3965 5.74221 28.1257 4 25.4565 4C22.7873 4 20.5165 5.74221 19.6749 8.17391H6.08696C4.93436 8.17391 4 9.10828 4 10.2609C4 11.4135 4.93436 12.3478 6.08696 12.3478L19.6749 12.3478C20.5165 14.7795 22.7873 16.5217 25.4565 16.5217C28.1257 16.5217 30.3965 14.7795 31.2381 12.3478L48.913 12.3478C50.0656 12.3478 51 11.4135 51 10.2609Z" fill="#0095E6"/>
<path fill-rule="evenodd" clip-rule="evenodd" d="M51 28C51 26.8474 50.0656 25.913 48.913 25.913H42.4773C41.6357 23.4813 39.3649 21.7391 36.6957 21.7391C34.0264 21.7391 31.7556 23.4813 30.9141 25.913L6.08696 25.913C4.93436 25.913 4 26.8474 4 28C4 29.1526 4.93436 30.087 6.08696 30.087L30.914 30.087C31.7556 32.5187 34.0264 34.2609 36.6957 34.2609C39.3649 34.2609 41.6357 32.5187 42.4773 30.087H48.913C50.0656 30.087 51 29.1526 51 28Z" fill="#0095E6"/>
<path fill-rule="evenodd" clip-rule="evenodd" d="M51 8.26087C51 7.10828 50.0656 6.17391 48.913 6.17391L31.5864 6.17391C31.5408 2.75621 28.8138 0 25.4565 0C22.0992 0 19.3722 2.75621 19.3267 6.17391L6.08696 6.17391C4.93436 6.17391 4 7.10828 4 8.26087C4 9.41346 4.93436 10.3478 6.08696 10.3478L20.8123 10.3478C21.9365 11.6791 23.6001 12.5217 25.4565 12.5217C27.3129 12.5217 28.9766 11.6791 30.1008 10.3478L48.913 10.3478C50.0656 10.3478 51 9.41346 51 8.26087Z" fill="#007BBD"/>
<path fill-rule="evenodd" clip-rule="evenodd" d="M51 26C51 24.8474 50.0656 23.913 48.913 23.913H42.8168C42.6401 20.617 39.9671 18 36.6956 18C33.4242 18 30.7512 20.617 30.5745 23.913L6.08696 23.913C4.93436 23.913 4 24.8474 4 26C4 27.1526 4.93436 28.087 6.08696 28.087L31.8428 28.087C32.9639 29.568 34.7207 30.5217 36.6956 30.5217C38.6705 30.5217 40.4273 29.568 41.5485 28.087H48.913C50.0656 28.087 51 27.1526 51 26Z" fill="#007BBD"/>
<path fill-rule="evenodd" clip-rule="evenodd" d="M51 45.7391C51 44.5865 50.0656 43.6522 48.913 43.6522H24.0859C23.2444 41.2205 20.9736 39.4783 18.3043 39.4783C15.6351 39.4783 13.3643 41.2205 12.5228 43.6522L6.08696 43.6522C4.93436 43.6522 4 44.5865 4 45.7391C4 46.8917 4.93436 47.8261 6.08696 47.8261L12.5227 47.8261C13.3643 50.2578 15.6351 52 18.3043 52C20.9736 52 23.2444 50.2578 24.086 47.8261H48.913C50.0656 47.8261 51 46.8917 51 45.7391Z" fill="#0095E6"/>
<path fill-rule="evenodd" clip-rule="evenodd" d="M51 43.7391C51 42.5865 50.0656 41.6522 48.913 41.6522H24.423C24.4308 41.5228 24.4348 41.3923 24.4348 41.2609C24.4348 37.8031 21.6901 35 18.3043 35C14.9186 35 12.1739 37.8031 12.1739 41.2609C12.1739 41.3923 12.1779 41.5228 12.1857 41.6522L6.08696 41.6522C4.93436 41.6522 4 42.5865 4 43.7391C4 44.8917 4.93436 45.8261 6.08696 45.8261L14.109 45.8261C15.2057 46.8776 16.6814 47.5217 18.3043 47.5217C19.9273 47.5217 21.403 46.8776 22.4997 45.8261H48.913C50.0656 45.8261 51 44.8917 51 43.7391Z" fill="#007BBD"/>
<path fill-rule="evenodd" clip-rule="evenodd" d="M10 0C4.47715 0 0 4.47715 0 10V46C0 51.5228 4.47715 56 10 56H46C51.5228 56 56 51.5229 56 46V10C56 4.47715 51.5229 0 46 0H10ZM48.913 8.17391C50.0656 8.17391 51 9.10828 51 10.2609C51 11.4135 50.0656 12.3478 48.913 12.3478H31.2381C30.3965 14.7795 28.1257 16.5217 25.4565 16.5217C22.7873 16.5217 20.5165 14.7795 19.6749 12.3478H6.08696C4.93436 12.3478 4 11.4135 4 10.2609C4 9.10828 4.93436 8.17391 6.08696 8.17391H19.6749C20.5165 5.74221 22.7873 4 25.4565 4C28.1257 4 30.3965 5.74221 31.2381 8.17391H48.913ZM51 28C51 26.8474 50.0656 25.913 48.913 25.913H42.4773C41.6357 23.4813 39.3649 21.7391 36.6957 21.7391C34.0264 21.7391 31.7556 23.4813 30.9141 25.913H6.08696C4.93436 25.913 4 26.8474 4 28C4 29.1526 4.93436 30.087 6.08696 30.087H30.914C31.7556 32.5187 34.0264 34.2609 36.6957 34.2609C39.3649 34.2609 41.6357 32.5187 42.4773 30.087H48.913C50.0656 30.087 51 29.1526 51 28ZM48.913 43.6522C50.0656 43.6522 51 44.5865 51 45.7391C51 46.8917 50.0656 47.8261 48.913 47.8261H24.086C23.2444 50.2578 20.9736 52 18.3043 52C15.6351 52 13.3643 50.2578 12.5227 47.8261H6.08696C4.93436 47.8261 4 46.8917 4 45.7391C4 44.5865 4.93436 43.6522 6.08696 43.6522L12.5228 43.6522C13.3643 41.2205 15.6351 39.4783 18.3043 39.4783C20.9736 39.4783 23.2444 41.2205 24.0859 43.6522H48.913Z" fill="white"/>
</svg>
