<svg width="59" height="61" viewBox="0 0 59 61" fill="none" xmlns="http://www.w3.org/2000/svg">
<path d="M27.3943 9.15694C22.4849 11.7687 22.1904 12.0044 22.1904 13.4772C22.1904 14.6554 22.8384 15.5195 23.997 15.873C24.7629 16.089 24.8218 16.0693 27.1194 14.8911L29.4563 13.6736L31.7931 14.8911C34.0907 16.0693 34.1496 16.089 34.9155 15.873C35.3672 15.7355 35.9366 15.3624 36.2312 15.0089C36.7025 14.4591 36.7614 14.2627 36.6829 13.3005C36.6043 12.4757 36.4865 12.1418 36.0937 11.808C35.2297 11.0618 30.4185 8.52854 29.6919 8.43036C29.1028 8.35181 28.6511 8.48927 27.3943 9.15694Z" fill="#0095E6"/>
<path d="M13.9426 16.8941C13.5695 17.0316 12.6466 17.4832 11.8807 17.9153C11.1345 18.3473 10.074 18.9168 9.56347 19.1721C7.4819 20.2325 7.26588 20.7823 7.26588 24.867C7.28552 28.3035 7.44262 29.1087 8.2674 29.8549C8.83689 30.3458 8.99399 30.4047 9.93659 30.3262C11.645 30.1887 12.3716 29.1872 12.3716 26.9878V26.0648L13.275 26.5361C14.3354 27.1056 14.9049 27.1449 15.7886 26.7325C16.6133 26.3398 17.0846 25.4954 17.0846 24.4153C17.0846 23.512 16.6723 22.9032 15.494 22.0981L15.0423 21.7839L15.6511 21.4697C16.633 20.9591 17.0846 20.2325 17.0846 19.1524C17.0846 18.1313 16.4562 17.1494 15.6511 16.9138C14.7478 16.6388 14.6103 16.6388 13.9426 16.8941Z" fill="#0095E6"/>
<path d="M43.4578 16.8352C42.4759 17.1101 41.8279 18.0331 41.8279 19.1524C41.8279 20.2325 42.2796 20.9591 43.2614 21.4697L43.8702 21.7839L43.4185 22.0981C42.2403 22.9032 41.8279 23.512 41.8279 24.4153C41.8279 25.4954 42.2992 26.3398 43.124 26.7325C44.0077 27.1449 44.5772 27.1056 45.6376 26.5361L46.5409 26.0648V26.9878C46.5409 28.2839 46.8551 29.2265 47.4442 29.796C47.8566 30.1887 48.1512 30.2673 49.1134 30.2673C50.0953 30.2673 50.3309 30.1887 50.763 29.7567C51.4896 29.0497 51.6467 28.1464 51.627 24.7688C51.627 20.5663 51.5485 20.3896 49.0152 19.015C44.5182 16.5603 44.4986 16.5407 43.4578 16.8352Z" fill="#0095E6"/>
<path d="M23.8203 27.8323C22.8384 28.1072 22.1904 29.0302 22.1904 30.1495C22.1904 31.4259 22.6028 31.8972 24.704 33.0362C27.2765 34.4108 27.0998 34.1163 27.0998 37.2386C27.0998 39.713 27.139 39.9879 27.5318 40.4788C28.4744 41.6767 30.2025 41.7749 31.2433 40.6556C31.6949 40.1843 31.7146 39.9879 31.8128 37.2779L31.911 34.3912L33.8747 33.2719C36.349 31.858 36.7221 31.4456 36.7221 30.1299C36.7221 29.2658 36.6436 29.0694 36.0348 28.4607C35.3868 27.8126 35.2886 27.7734 34.3067 27.8519C33.5605 27.9305 32.8143 28.225 31.4789 28.9712C30.4971 29.5211 29.5937 29.9728 29.4759 29.9728C29.3581 29.9728 28.3958 29.5015 27.3551 28.9123C25.1949 27.7341 24.7236 27.577 23.8203 27.8323Z" fill="#0095E6"/>
<path d="M8.85653 35.6087C8.48341 35.8051 7.99248 36.2174 7.77646 36.512C7.38371 37.0226 7.36407 37.3368 7.36407 40.8519C7.36407 44.1314 7.40335 44.6812 7.71755 45.1525C8.12994 45.7809 8.81725 46.2326 11.8218 47.8232C14.1979 49.08 14.9049 49.2371 15.9064 48.7265C16.7312 48.2945 17.0846 47.6858 17.0846 46.6253C17.0846 45.3882 16.5348 44.799 14.2372 43.5422L12.4698 42.58L12.3716 39.8504C12.2931 37.6903 12.1949 37.0029 11.92 36.5906C11.1738 35.4516 9.91695 35.0588 8.85653 35.6087Z" fill="#0095E6"/>
<path d="M48.1315 35.6087C46.8158 36.296 46.6587 36.7477 46.5409 39.8308L46.4427 42.5997L44.5772 43.6404C42.2207 44.9562 41.8279 45.3882 41.8279 46.7039C41.8279 47.5679 41.9065 47.7643 42.4956 48.3534C43.0651 48.9229 43.3007 49.0211 44.0862 49.0211C44.8717 49.0211 45.4216 48.7855 47.6799 47.5287C49.1723 46.7235 50.6059 45.8006 50.9004 45.4864C51.5681 44.7598 51.7056 43.6404 51.627 39.929C51.5681 37.6706 51.4699 37.0226 51.195 36.5906C50.4488 35.4516 49.192 35.0588 48.1315 35.6087Z" fill="#0095E6"/>
<path d="M27.7674 47.1359C27.139 47.7643 27.0998 47.8821 27.0998 49.1586C27.0998 49.9048 27.0605 50.5725 27.0016 50.6314C26.9427 50.6903 26.491 50.5136 25.9804 50.2779C24.9004 49.7281 24.3505 49.6888 23.4472 50.1208C22.642 50.5136 22.1904 51.2794 22.1904 52.2613C22.1904 53.5967 22.5635 53.9894 25.6662 55.7175C29.5152 57.858 29.3974 57.858 33.2463 55.7175C36.349 53.9894 36.7221 53.5967 36.7221 52.2613C36.7221 51.2794 36.2705 50.5136 35.4653 50.1208C34.562 49.6888 34.0122 49.7281 32.9321 50.2779C32.4215 50.5136 31.9699 50.6903 31.911 50.6314C31.852 50.5725 31.8128 49.9048 31.8128 49.1586C31.8128 47.8821 31.7735 47.7643 31.1451 47.1359C30.556 46.5468 30.3596 46.4682 29.4563 46.4682C28.5529 46.4682 28.3566 46.5468 27.7674 47.1359Z" fill="#0095E6"/>
<g clip-path="url(#clip0_3_205)">
<path d="M27.3943 5.70467C22.485 8.31646 22.1904 8.55211 22.1904 10.0249C22.1904 11.2032 22.8384 12.0672 23.9971 12.4207C24.7629 12.6367 24.8218 12.6171 27.1194 11.4388L29.4563 10.2213L31.7931 11.4388C34.0907 12.6171 34.1496 12.6367 34.9155 12.4207C35.3672 12.2832 35.9367 11.9101 36.2312 11.5567C36.7025 11.0068 36.7614 10.8104 36.6829 9.84819C36.6043 9.02341 36.4865 8.68957 36.0938 8.35574C35.2297 7.60951 30.4185 5.07627 29.6919 4.97809C29.1028 4.89954 28.6511 5.037 27.3943 5.70467Z" fill="#007BBD"/>
<path d="M13.9426 13.4419C13.5695 13.5793 12.6466 14.031 11.8807 14.463C11.1345 14.895 10.074 15.4645 9.56347 15.7198C7.4819 16.7802 7.26588 17.3301 7.26588 21.4147C7.28552 24.8512 7.44262 25.6564 8.2674 26.4026C8.83689 26.8935 8.99399 26.9525 9.93659 26.8739C11.645 26.7364 12.3716 25.7349 12.3716 23.5355V22.6126L13.275 23.0839C14.3354 23.6534 14.9049 23.6926 15.7886 23.2802C16.6133 22.8875 17.0846 22.0431 17.0846 20.963C17.0846 20.0597 16.6723 19.4509 15.494 18.6458L15.0423 18.3316L15.6511 18.0174C16.633 17.5068 17.0846 16.7802 17.0846 15.7002C17.0846 14.679 16.4562 13.6971 15.6511 13.4615C14.7478 13.1866 14.6103 13.1866 13.9426 13.4419Z" fill="#007BBD"/>
<path d="M43.4578 13.3829C42.4759 13.6579 41.8279 14.5808 41.8279 15.7002C41.8279 16.7802 42.2796 17.5068 43.2614 18.0174L43.8702 18.3316L43.4185 18.6458C42.2403 19.4509 41.8279 20.0597 41.8279 20.963C41.8279 22.0431 42.2992 22.8875 43.124 23.2803C44.0077 23.6926 44.5772 23.6534 45.6376 23.0839L46.5409 22.6126V23.5355C46.5409 24.8316 46.8551 25.7742 47.4442 26.3437C47.8566 26.7365 48.1512 26.815 49.1134 26.815C50.0953 26.815 50.3309 26.7365 50.763 26.3044C51.4896 25.5975 51.6467 24.6942 51.627 21.3165C51.627 17.1141 51.5485 16.9373 49.0152 15.5627C44.5182 13.108 44.4986 13.0884 43.4578 13.3829Z" fill="#007BBD"/>
<path d="M23.8203 24.3799C22.8384 24.6549 22.1904 25.5778 22.1904 26.6972C22.1904 27.9736 22.6028 28.4449 24.704 29.5839C27.2765 30.9585 27.0998 30.6639 27.0998 33.7863C27.0998 36.2606 27.1391 36.5356 27.5318 37.0265C28.4744 38.2244 30.2025 38.3226 31.2433 37.2032C31.695 36.7319 31.7146 36.5356 31.8128 33.8256L31.911 30.9389L33.8747 29.8195C36.349 28.4056 36.7222 27.9932 36.7222 26.6775C36.7222 25.8135 36.6436 25.6171 36.0348 25.0083C35.3868 24.3603 35.2886 24.321 34.3067 24.3996C33.5605 24.4781 32.8143 24.7727 31.4789 25.5189C30.4971 26.0688 29.5937 26.5204 29.4759 26.5204C29.3581 26.5204 28.3959 26.0491 27.3551 25.46C25.1949 24.2817 24.7236 24.1246 23.8203 24.3799Z" fill="#007BBD"/>
<path d="M8.85653 32.1564C8.48341 32.3528 7.99248 32.7651 7.77646 33.0597C7.38371 33.5703 7.36407 33.8845 7.36407 37.3996C7.36407 40.6791 7.40335 41.2289 7.71755 41.7002C8.12994 42.3286 8.81725 42.7803 11.8218 44.3709C14.1979 45.6277 14.9049 45.7848 15.9064 45.2742C16.7312 44.8422 17.0846 44.2335 17.0846 43.173C17.0846 41.9359 16.5348 41.3467 14.2372 40.0899L12.4698 39.1277L12.3716 36.3981C12.2931 34.238 12.1949 33.5506 11.92 33.1383C11.1738 31.9993 9.91695 31.6065 8.85653 32.1564Z" fill="#007BBD"/>
<path d="M48.1315 32.1564C46.8158 32.8437 46.6587 33.2954 46.5409 36.3785L46.4427 39.1474L44.5772 40.1881C42.2207 41.5039 41.8279 41.9359 41.8279 43.2516C41.8279 44.1156 41.9065 44.312 42.4956 44.9011C43.0651 45.4706 43.3007 45.5688 44.0862 45.5688C44.8717 45.5688 45.4216 45.3332 47.6799 44.0764C49.1723 43.2712 50.6059 42.3483 50.9004 42.0341C51.5681 41.3075 51.7056 40.1881 51.627 36.4766C51.5681 34.2183 51.4699 33.5703 51.195 33.1383C50.4488 31.9993 49.192 31.6065 48.1315 32.1564Z" fill="#007BBD"/>
<path d="M27.7675 43.6836C27.1391 44.312 27.0998 44.4298 27.0998 45.7063C27.0998 46.4525 27.0605 47.1202 27.0016 47.1791C26.9427 47.238 26.491 47.0613 25.9804 46.8256C24.9004 46.2758 24.3505 46.2365 23.4472 46.6685C22.6421 47.0613 22.1904 47.8271 22.1904 48.809C22.1904 50.1444 22.5635 50.5371 25.6662 52.2652C29.5152 54.4057 29.3974 54.4057 33.2463 52.2652C36.349 50.5371 36.7222 50.1444 36.7222 48.809C36.7222 47.8271 36.2705 47.0613 35.4654 46.6685C34.562 46.2365 34.0122 46.2758 32.9321 46.8256C32.4215 47.0613 31.9699 47.238 31.911 47.1791C31.8521 47.1202 31.8128 46.4525 31.8128 45.7063C31.8128 44.4298 31.7735 44.312 31.1451 43.6836C30.556 43.0945 30.3596 43.0159 29.4563 43.0159C28.553 43.0159 28.3566 43.0945 27.7675 43.6836Z" fill="#007BBD"/>
</g>
<path fill-rule="evenodd" clip-rule="evenodd" d="M11.1508 3.46207C5.62792 3.46207 1.15077 7.93921 1.15077 13.4621V51C1.15077 56.5228 5.62792 61 11.1508 61H48.6887C54.2115 61 58.6887 56.5228 58.6887 51V13.4621C58.6887 7.93922 54.2115 3.46207 48.6887 3.46207H11.1508ZM22.1904 13.4772C22.1904 12.0044 22.485 11.7687 27.3943 9.15695C28.6511 8.48928 29.1028 8.35181 29.6919 8.43036C30.4185 8.52855 35.2297 11.0618 36.0937 11.808C36.4865 12.1419 36.6043 12.4757 36.6829 13.3005C36.7614 14.2627 36.7025 14.4591 36.2312 15.0089C35.9366 15.3624 35.3672 15.7355 34.9155 15.873C34.1496 16.089 34.0907 16.0694 31.7931 14.8911L29.4563 13.6736L27.1194 14.8911C24.8218 16.0694 24.7629 16.089 23.997 15.873C22.8384 15.5195 22.1904 14.6555 22.1904 13.4772ZM13.9426 16.8941C13.5695 17.0316 12.6466 17.4832 11.8807 17.9153C11.1345 18.3473 10.074 18.9168 9.56347 19.1721C7.48189 20.2325 7.26588 20.7824 7.26588 24.867C7.28552 28.3035 7.44262 29.1087 8.26739 29.8549C8.83688 30.3458 8.99398 30.4047 9.93658 30.3262C11.645 30.1887 12.3716 29.1872 12.3716 26.9878V26.0648L13.275 26.5361C14.3354 27.1056 14.9049 27.1449 15.7886 26.7325C16.6133 26.3398 17.0846 25.4954 17.0846 24.4153C17.0846 23.512 16.6722 22.9032 15.494 22.0981L15.0423 21.7839L15.6511 21.4697C16.633 20.9591 17.0846 20.2325 17.0846 19.1524C17.0846 18.1313 16.4562 17.1494 15.6511 16.9138C14.7478 16.6388 14.6103 16.6388 13.9426 16.8941ZM41.8279 19.1524C41.8279 18.0331 42.4759 17.1101 43.4578 16.8352C44.4879 16.5437 44.5177 16.5599 48.8786 18.9404L49.0152 19.015C51.5485 20.3896 51.627 20.5663 51.627 24.7688C51.6467 28.1464 51.4896 29.0497 50.763 29.7567C50.3309 30.1887 50.0953 30.2673 49.1134 30.2673C48.1512 30.2673 47.8566 30.1887 47.4442 29.796C46.8551 29.2265 46.5409 28.2839 46.5409 26.9878V26.0648L45.6376 26.5361C44.5771 27.1056 44.0077 27.1449 43.124 26.7325C42.2992 26.3398 41.8279 25.4954 41.8279 24.4153C41.8279 23.512 42.2403 22.9032 43.4185 22.0981L43.8702 21.7839L43.2614 21.4697C42.2796 20.9591 41.8279 20.2325 41.8279 19.1524ZM23.8203 27.8322C22.8384 28.1071 22.1904 29.0301 22.1904 30.1494C22.1904 31.4259 22.6028 31.8972 24.704 33.0362C24.8595 33.1193 25.005 33.1963 25.1411 33.2683L25.1413 33.2684C26.1028 33.7774 26.5948 34.0378 26.8455 34.4463C27.1083 34.8745 27.1059 35.4653 27.1012 36.6753C27.1005 36.8497 27.0998 37.037 27.0998 37.2386C27.0998 39.7129 27.139 39.9878 27.5318 40.4788C28.4744 41.6767 30.2025 41.7749 31.2433 40.6555C31.6949 40.1842 31.7146 39.9878 31.8128 37.2779L31.911 34.3911L33.8747 33.2718C36.349 31.8579 36.7221 31.4455 36.7221 30.1298C36.7221 29.2658 36.6436 29.0694 36.0348 28.4606C35.3868 27.8126 35.2886 27.7733 34.3067 27.8519C33.5605 27.9304 32.8143 28.225 31.4789 28.9712C30.4971 29.521 29.5937 29.9727 29.4759 29.9727C29.3581 29.9727 28.3958 29.5014 27.3551 28.9123C25.1949 27.734 24.7236 27.5769 23.8203 27.8322ZM7.77645 36.512C7.99247 36.2174 8.4834 35.805 8.85652 35.6087C9.91694 35.0588 11.1737 35.4516 11.92 36.5905C12.1949 37.0029 12.2931 37.6903 12.3716 39.8504L12.4698 42.58L14.2372 43.5422C16.5348 44.799 17.0846 45.3882 17.0846 46.6253C17.0846 47.6857 16.7312 48.2945 15.9064 48.7265C14.9049 49.2371 14.1979 49.08 11.8218 47.8232C8.81724 46.2326 8.12993 45.7809 7.71754 45.1525C7.40334 44.6812 7.36407 44.1314 7.36407 40.8519C7.36407 37.3368 7.3837 37.0226 7.77645 36.512ZM48.1315 35.6087C46.8158 36.296 46.6587 36.7477 46.5409 39.8307L46.4427 42.5996L44.5771 43.6404C42.2206 44.9561 41.8279 45.3882 41.8279 46.7039C41.8279 47.5679 41.9064 47.7643 42.4956 48.3534C43.0651 48.9229 43.3007 49.0211 44.0862 49.0211C44.8717 49.0211 45.4216 48.7854 47.6799 47.5286C49.1723 46.7235 50.6059 45.8005 50.9004 45.4863C51.5681 44.7598 51.7056 43.6404 51.627 39.9289C51.5681 37.6706 51.4699 37.0226 51.195 36.5905C50.4488 35.4516 49.192 35.0588 48.1315 35.6087ZM27.0998 49.1586C27.0998 47.8821 27.139 47.7643 27.7674 47.1359C28.3566 46.5468 28.5529 46.4682 29.4563 46.4682C30.3596 46.4682 30.556 46.5468 31.1451 47.1359C31.7735 47.7643 31.8128 47.8821 31.8128 49.1586C31.8128 49.9048 31.852 50.5725 31.911 50.6314C31.9699 50.6903 32.4215 50.5135 32.9321 50.2779C34.0122 49.728 34.562 49.6888 35.4653 50.1208C36.2705 50.5135 36.7221 51.2794 36.7221 52.2613C36.7221 53.5966 36.349 53.9894 33.2463 55.7175C31.3218 56.7877 30.389 57.3229 29.4563 57.3229C28.5235 57.3229 27.5907 56.7877 25.6662 55.7175C22.5635 53.9894 22.1904 53.5966 22.1904 52.2613C22.1904 51.2794 22.6421 50.5135 23.4472 50.1208C24.3505 49.6888 24.9004 49.728 25.9804 50.2779C26.491 50.5135 26.9427 50.6903 27.0016 50.6314C27.0605 50.5725 27.0998 49.9048 27.0998 49.1586Z" fill="white"/>
<defs>
<clipPath id="clip0_3_205">
<rect width="58.9125" height="57.5379" fill="white" transform="translate(0 0.00979614)"/>
</clipPath>
</defs>
</svg>
